<svg version="1" xmlns="http://www.w3.org/2000/svg" width="730.667" height="730.667" viewBox="0 0 548.000000 548.000000"><path d="M180.9.4c-.2.2-5.1.7-10.9 1-5.8.4-11.8.9-13.5 1.1-1.6.3-5.2.7-8 1-4.4.5-11.2 1.6-18.1 2.9-1.2.3-3.8.9-5.8 1.4-2 .6-3.6.8-3.6.6 0-.3-1.3.2-3 1.1-1.6.9-3 1.4-3 1.1 0-1.4-27.8 10.7-29.1 12.7-.3.5-.9.7-1.2.5-.6-.4-18.9 11.5-23.1 15.1-6.8 5.8-13.2 11.8-16 15-6.2 6.9-14.5 17.6-14.6 18.8 0 .6-.3 1.3-.7 1.5C28.4 75 16 99.3 16 102.1c0 1-.4 2-.9 2.3-.5.3-1.1 1.6-1.4 2.8-.3 1.3-1.1 4.1-1.7 6.3C8.3 127 7.9 129 6.3 141.7c-1 7.2-.9 38.7.1 46.8 1 8.7 1.4 11 3.8 21 1.2 4.9 2.2 9.2 2.3 9.5.6 3.5 5.8 16.7 9.7 24.9 4.3 9 12 22.5 13.8 24.1.3.3 2.5 3.2 5 6.4 9.8 13 26.9 28.4 40.5 36.6 2.2 1.3 4.2 2.6 4.5 3 .3.3 5.2 2.9 11 5.7 9.9 4.9 31 12.5 37.5 13.6 1.7.3 3.7.8 4.5 1.1.8.3 3.1.7 5 1 1.9.3 4.6.8 6 1 1.4.3 4.3.8 6.5 1.2 2.2.3 29.6.8 61 1.1 31.3.3 57.2.7 57.4.9.3.3.5 47.3.5 104.5v104l133.8-.2 133.8-.1V0L362.1.1c-99.5 0-181 .2-181.2.3z"/></svg>