<svg xmlns="http://www.w3.org/2000/svg" width="3563.842" height="3168.881" viewBox="0 0 3563.842 3168.881"><g transform="translate(1486.534 7012.975)"><path d="M0,142.6,82.33,0l82.334,142.6Z" transform="translate(-1343.966 -5942.822) rotate(30)" fill="#fbbb30"/><path d="M0,142.6,82.33,0l82.334,142.6Z" transform="translate(-1343.966 -6436.751) rotate(30)" fill="#fbbb30"/><path d="M0,142.6,82.33,0l82.334,142.6Z" transform="translate(-1343.966 -6930.333) rotate(30)" fill="#fbbb30"/><path d="M0,142.6,82.33,0l82.334,142.6Z" transform="translate(-203.503 -6765.92) rotate(30)" fill="#d6185e"/><path d="M0,142.6,82.33,0l82.334,142.6Z" transform="translate(-203.503 -5778.237) rotate(30)" fill="#fbbb30"/><path d="M0,142.6,82.33,0l82.334,142.6Z" transform="translate(-203.503 -6271.819) rotate(30)" fill="#d6185e"/><path d="M0,142.6,82.33,0l82.334,142.6Z" transform="translate(936.96 -4625.969) rotate(30)" fill="#fbbb30"/><path d="M0,142.6,82.33,0l82.334,142.6Z" transform="translate(936.96 -6107.581) rotate(30)" fill="#d6185e"/><path d="M0,142.6,82.33,0l82.334,142.6Z" transform="translate(936.96 -5119.898) rotate(30)" fill="#fbbb30"/><path d="M0,142.6,82.33,0l82.334,142.6Z" transform="translate(936.96 -6601.51) rotate(30)" fill="#d6185e"/><path d="M0,142.6,82.33,0l82.334,142.6Z" transform="translate(936.96 -5613.478) rotate(30)" fill="#d6185e"/><path d="M0,142.6,82.33,0l82.334,142.6Z" transform="translate(-1201.431 -6354.458) rotate(30)" fill="#fbbb30"/><path d="M0,142.6,82.33,0l82.334,142.6Z" transform="translate(-1201.431 -6848.041) rotate(30)" fill="#d6185e"/><path d="M0,142.6,82.33,0l82.334,142.6Z" transform="translate(-60.968 -5202.016) rotate(30)" fill="#fbbb30"/><path d="M0,142.6,82.33,0l82.334,142.6Z" transform="translate(-60.968 -6683.628) rotate(30)" fill="#d6185e"/><path d="M0,142.6,82.33,0l82.334,142.6Z" transform="translate(-60.968 -5695.945) rotate(30)" fill="#ef514b"/><path d="M0,142.6,82.33,0l82.334,142.6Z" transform="translate(-60.968 -6189.526) rotate(30)" fill="#d6185e"/><path d="M0,142.6,82.33,0l82.334,142.6Z" transform="translate(1079.495 -4543.675) rotate(30)" fill="#fbbb30"/><path d="M0,142.6,82.33,0l82.334,142.6Z" transform="translate(1079.495 -6025.288) rotate(30)" fill="#fbbb30"/><path d="M0,142.6,82.33,0l82.334,142.6Z" transform="translate(1079.495 -5037.604) rotate(30)" fill="#ef514b"/><path d="M0,142.6,82.33,0l82.334,142.6Z" transform="translate(1079.495 -6519.217) rotate(30)" fill="#d6185e"/><path d="M0,142.6,82.33,0l82.334,142.6Z" transform="translate(1079.495 -5531.186) rotate(30)" fill="#fbbb30"/><path d="M0,142.6,82.33,0l82.334,142.6Z" transform="translate(1079.495 -7012.798) rotate(30)" fill="#d6185e"/><path d="M0,142.6,82.33,0l82.334,142.6Z" transform="translate(-1058.896 -5778.237) rotate(30)" fill="#fbbb30"/><path d="M0,142.6,82.33,0l82.334,142.6Z" transform="translate(-1058.896 -6272.167) rotate(30)" fill="#ef514b"/><path d="M0,142.6,82.33,0l82.334,142.6Z" transform="translate(-1058.896 -6765.748) rotate(30)" fill="#d6185e"/><path d="M0,142.6,82.33,0l82.334,142.6Z" transform="translate(81.567 -5119.725) rotate(30)" fill="#fbbb30"/><path d="M0,142.6,82.33,0l82.334,142.6Z" transform="translate(81.567 -6601.337) rotate(30)" fill="#fd7b3d"/><path d="M0,142.6,82.33,0l82.334,142.6Z" transform="translate(81.567 -5613.652) rotate(30)" fill="#ef514b"/><path d="M0,142.6,82.33,0l82.334,142.6Z" transform="translate(81.567 -6107.235) rotate(30)" fill="#fbbb30"/><path d="M0,142.6,82.33,0l82.334,142.6Z" transform="translate(1222.03 -5942.996) rotate(30)" fill="#d6185e"/><path d="M0,142.6,82.33,0l82.334,142.6Z" transform="translate(1222.03 -4955.313) rotate(30)" fill="#fbbb30"/><path d="M0,142.6,82.33,0l82.334,142.6Z" transform="translate(1222.03 -6436.926) rotate(30)" fill="#d6185e"/><path d="M0,142.6,82.33,0l82.334,142.6Z" transform="translate(1222.03 -5448.895) rotate(30)" fill="#d6185e"/><path d="M0,142.6,82.33,0l82.334,142.6Z" transform="translate(1222.03 -6930.506) rotate(30)" fill="#d6185e"/><path d="M0,142.6,82.33,0l82.334,142.6Z" transform="translate(-916.362 -6189.874) rotate(30)" fill="#fbbb30"/><path d="M0,142.6,82.33,0l82.334,142.6Z" transform="translate(-916.362 -6683.455) rotate(30)" fill="#fbbb30"/><path d="M0,142.6,82.33,0l82.334,142.6Z" transform="translate(224.101 -5037.431) rotate(30)" fill="#fbbb30"/><path d="M0,142.6,82.33,0l82.334,142.6Z" transform="translate(224.101 -6519.043) rotate(30)" fill="#d6185e"/><path d="M0,142.6,82.33,0l82.334,142.6Z" transform="translate(224.101 -5531.361) rotate(30)" fill="#ef514b"/><path d="M0,142.6,82.33,0l82.334,142.6Z" transform="translate(224.101 -7012.973) rotate(30)" fill="#d6185e"/><path d="M0,142.6,82.33,0l82.334,142.6Z" transform="translate(224.101 -6024.941) rotate(30)" fill="#d6185e"/><path d="M0,142.6,82.33,0l82.334,142.6Z" transform="translate(1364.565 -4379.091) rotate(30)" fill="#fbbb30"/><path d="M0,142.6,82.33,0l82.334,142.6Z" transform="translate(1364.565 -5860.704) rotate(30)" fill="#d6185e"/><path d="M0,142.6,82.33,0l82.334,142.6Z" transform="translate(1364.565 -4873.021) rotate(30)" fill="#ef514b"/><path d="M0,142.6,82.33,0l82.334,142.6Z" transform="translate(1364.565 -6354.632) rotate(30)" fill="#d6185e"/><path d="M0,142.6,82.33,0l82.334,142.6Z" transform="translate(1364.565 -5366.602) rotate(30)" fill="#fbbb30"/><path d="M0,142.6,82.33,0l82.334,142.6Z" transform="translate(1364.565 -6848.214) rotate(30)" fill="#d6185e"/><path d="M0,142.6,82.33,0l82.334,142.6Z" transform="translate(-773.826 -6107.581) rotate(30)" fill="#ef514b"/><path d="M0,142.6,82.33,0l82.334,142.6Z" transform="translate(-773.826 -6601.162) rotate(30)" fill="#d6185e"/><path d="M0,142.6,82.33,0l82.334,142.6Z" transform="translate(366.637 -4955.139) rotate(30)" fill="#fbbb30"/><path d="M0,142.6,82.33,0l82.334,142.6Z" transform="translate(366.637 -6436.751) rotate(30)" fill="#d6185e"/><path d="M0,142.6,82.33,0l82.334,142.6Z" transform="translate(366.637 -5449.067) rotate(30)" fill="#fbbb30"/><path d="M0,142.6,82.33,0l82.334,142.6Z" transform="translate(366.637 -6930.679) rotate(30)" fill="#d6185e"/><path d="M0,142.6,82.33,0l82.334,142.6Z" transform="translate(366.637 -5942.649) rotate(30)" fill="#d6185e"/><path d="M0,142.6,82.33,0l82.334,142.6Z" transform="translate(1507.099 -4296.798) rotate(30)" fill="#fbbb30"/><path d="M0,142.6,82.33,0l82.334,142.6Z" transform="translate(1507.099 -5778.41) rotate(30)" fill="#d6185e"/><path d="M0,142.6,82.33,0l82.334,142.6Z" transform="translate(1507.099 -4790.728) rotate(30)" fill="#ef514b"/><path d="M0,142.6,82.33,0l82.334,142.6Z" transform="translate(1507.099 -6272.34) rotate(30)" fill="#d6185e"/><path d="M0,142.6,82.33,0l82.334,142.6Z" transform="translate(1507.099 -5284.309) rotate(30)" fill="#d6185e"/><path d="M0,142.6,82.33,0l82.334,142.6Z" transform="translate(1507.099 -6765.92) rotate(30)" fill="#d6185e"/><path d="M0,142.6,82.33,0l82.334,142.6Z" transform="translate(-631.292 -5531.361) rotate(30)" fill="#fbbb30"/><path d="M0,142.6,82.33,0l82.334,142.6Z" transform="translate(-631.292 -7012.973) rotate(30)" fill="#d6185e"/><path d="M0,142.6,82.33,0l82.334,142.6Z" transform="translate(-631.292 -6025.288) rotate(30)" fill="#ef514b"/><path d="M0,142.6,82.33,0l82.334,142.6Z" transform="translate(-631.292 -6518.87) rotate(30)" fill="#d6185e"/><path d="M0,142.6,82.33,0l82.334,142.6Z" transform="translate(509.171 -6354.458) rotate(30)" fill="#d6185e"/><path d="M0,142.6,82.33,0l82.334,142.6Z" transform="translate(509.171 -5366.775) rotate(30)" fill="#ef514b"/><path d="M0,142.6,82.33,0l82.334,142.6Z" transform="translate(509.171 -6848.387) rotate(30)" fill="#d6185e"/><path d="M0,142.6,82.33,0l82.334,142.6Z" transform="translate(509.171 -5860.355) rotate(30)" fill="#d6185e"/><path d="M0,142.6,82.33,0l82.334,142.6Z" transform="translate(1649.634 -5696.119) rotate(30)" fill="#d6185e"/><path d="M0,142.6,82.33,0l82.334,142.6Z" transform="translate(1649.634 -4708.434) rotate(30)" fill="#ef514b"/><path d="M0,142.6,82.33,0l82.334,142.6Z" transform="translate(1649.634 -6190.046) rotate(30)" fill="#d6185e"/><path d="M0,142.6,82.33,0l82.334,142.6Z" transform="translate(1649.634 -5202.016) rotate(30)" fill="#d6185e"/><path d="M0,142.6,82.33,0l82.334,142.6Z" transform="translate(1649.634 -6683.628) rotate(30)" fill="#d6185e"/><path d="M0,142.6,82.33,0l82.334,142.6Z" transform="translate(-488.757 -5449.067) rotate(30)" fill="#fbbb30"/><path d="M0,142.6,82.33,0l82.334,142.6Z" transform="translate(-488.757 -6930.679) rotate(30)" fill="#d6185e"/><path d="M0,142.6,82.33,0l82.334,142.6Z" transform="translate(-488.757 -6436.578) rotate(30)" fill="#fbbb30"/><path d="M0,142.6,82.33,0l82.334,142.6Z" transform="translate(651.706 -4790.554) rotate(30)" fill="#fbbb30"/><path d="M0,142.6,82.33,0l82.334,142.6Z" transform="translate(651.706 -6272.167) rotate(30)" fill="#d6185e"/><path d="M0,142.6,82.33,0l82.334,142.6Z" transform="translate(651.706 -5284.481) rotate(30)" fill="#ef514b"/><path d="M0,142.6,82.33,0l82.334,142.6Z" transform="translate(651.706 -6766.096) rotate(30)" fill="#d6185e"/><path d="M0,142.6,82.33,0l82.334,142.6Z" transform="translate(651.706 -5778.064) rotate(30)" fill="#fd7b3d"/><path d="M0,142.6,82.33,0l82.334,142.6Z" transform="translate(1792.169 -4132.215) rotate(30)" fill="#fbbb30"/><path d="M0,142.6,82.33,0l82.334,142.6Z" transform="translate(1792.169 -5613.827) rotate(30)" fill="#d6185e"/><path d="M0,142.6,82.33,0l82.334,142.6Z" transform="translate(1792.169 -4626.143) rotate(30)" fill="#ef514b"/><path d="M0,142.6,82.33,0l82.334,142.6Z" transform="translate(1792.169 -6107.755) rotate(30)" fill="#d6185e"/><path d="M0,142.6,82.33,0l82.334,142.6Z" transform="translate(1792.169 -5119.725) rotate(30)" fill="#d6185e"/><path d="M0,142.6,82.33,0l82.334,142.6Z" transform="translate(1792.169 -6601.337) rotate(30)" fill="#d6185e"/><path d="M0,142.6,82.33,0l82.334,142.6Z" transform="translate(-346.222 -5366.775) rotate(30)" fill="#fbbb30"/><path d="M0,142.6,82.33,0l82.334,142.6Z" transform="translate(-346.222 -6848.387) rotate(30)" fill="#d6185e"/><path d="M0,142.6,82.33,0l82.334,142.6Z" transform="translate(-346.222 -5860.704) rotate(30)" fill="#ef514b"/><path d="M0,142.6,82.33,0l82.334,142.6Z" transform="translate(-346.222 -6354.284) rotate(30)" fill="#d6185e"/><path d="M0,142.6,82.33,0l82.334,142.6Z" transform="translate(794.241 -4708.262) rotate(30)" fill="#fbbb30"/><path d="M0,142.6,82.33,0l82.334,142.6Z" transform="translate(794.241 -6189.874) rotate(30)" fill="#d6185e"/><path d="M0,142.6,82.33,0l82.334,142.6Z" transform="translate(794.241 -5202.19) rotate(30)" fill="#fbbb30"/><path d="M0,142.6,82.33,0l82.334,142.6Z" transform="translate(794.241 -6683.802) rotate(30)" fill="#d6185e"/><path d="M0,142.6,82.33,0l82.334,142.6Z" transform="translate(794.241 -5695.772) rotate(30)" fill="#d6185e"/><path d="M0,142.6,82.33,0l82.334,142.6Z" transform="translate(1934.704 -4049.922) rotate(30)" fill="#fbbb30"/><path d="M0,142.6,82.33,0l82.334,142.6Z" transform="translate(1934.704 -5531.534) rotate(30)" fill="#d6185e"/><path d="M0,142.6,82.33,0l82.334,142.6Z" transform="translate(1934.704 -4543.851) rotate(30)" fill="#fbbb30"/><path d="M0,142.6,82.33,0l82.334,142.6Z" transform="translate(1934.704 -6025.463) rotate(30)" fill="#d6185e"/><path d="M0,142.6,82.33,0l82.334,142.6Z" transform="translate(1934.704 -5037.431) rotate(30)" fill="#d6185e"/><path d="M0,142.6,82.33,0l82.334,142.6Z" transform="translate(1934.704 -6519.043) rotate(30)" fill="#d6185e"/><path d="M0,142.6,82.33,0l82.334,142.6Z" transform="translate(-346.187 -5202.093) rotate(-150)" fill="#fd7b3d"/><path d="M0,142.6,82.33,0l82.334,142.6Z" transform="translate(-346.187 -6683.706) rotate(-150)" fill="#af205e"/><path d="M0,142.6,82.33,0l82.334,142.6Z" transform="translate(-346.187 -5696.021) rotate(-150)" fill="#fd7b3d"/><path d="M0,142.6,82.33,0l82.334,142.6Z" transform="translate(-346.187 -6189.604) rotate(-150)" fill="#af205e"/><path d="M0,142.6,82.33,0l82.334,142.6Z" transform="translate(794.276 -6025.19) rotate(-150)" fill="#af205e"/><path d="M0,142.6,82.33,0l82.334,142.6Z" transform="translate(794.276 -5037.507) rotate(-150)" fill="#fd7b3d"/><path d="M0,142.6,82.33,0l82.334,142.6Z" transform="translate(794.276 -6519.119) rotate(-150)" fill="#af205e"/><path d="M0,142.6,82.33,0l82.334,142.6Z" transform="translate(794.276 -5531.089) rotate(-150)" fill="#af205e"/><path d="M0,142.6,82.33,0l82.334,142.6Z" transform="translate(1934.739 -3885.239) rotate(-150)" fill="#fd7b3d"/><path d="M0,142.6,82.33,0l82.334,142.6Z" transform="translate(1934.739 -5366.852) rotate(-150)" fill="#af205e"/><path d="M0,142.6,82.33,0l82.334,142.6Z" transform="translate(1934.739 -4379.168) rotate(-150)" fill="#fd7b3d"/><path d="M0,142.6,82.33,0l82.334,142.6Z" transform="translate(1934.739 -5860.78) rotate(-150)" fill="#af205e"/><path d="M0,142.6,82.33,0l82.334,142.6Z" transform="translate(1934.739 -4872.749) rotate(-150)" fill="#af205e"/><path d="M0,142.6,82.33,0l82.334,142.6Z" transform="translate(1934.739 -6354.36) rotate(-150)" fill="#af205e"/><path d="M0,142.6,82.33,0l82.334,142.6Z" transform="translate(-488.722 -6765.997) rotate(-150)" fill="#af205e"/><path d="M0,142.6,82.33,0l82.334,142.6Z" transform="translate(-488.722 -5778.313) rotate(-150)" fill="#fd7b3d"/><path d="M0,142.6,82.33,0l82.334,142.6Z" transform="translate(-488.722 -6271.895) rotate(-150)" fill="#af205e"/><path d="M0,142.6,82.33,0l82.334,142.6Z" transform="translate(651.741 -4625.871) rotate(-150)" fill="#fd7b3d"/><path d="M0,142.6,82.33,0l82.334,142.6Z" transform="translate(651.741 -6107.484) rotate(-150)" fill="#af205e"/><path d="M0,142.6,82.33,0l82.334,142.6Z" transform="translate(651.741 -5119.801) rotate(-150)" fill="#fd7b3d"/><path d="M0,142.6,82.33,0l82.334,142.6Z" transform="translate(651.741 -6601.413) rotate(-150)" fill="#af205e"/><path d="M0,142.6,82.33,0l82.334,142.6Z" transform="translate(651.741 -5613.381) rotate(-150)" fill="#af205e"/><path d="M0,142.6,82.33,0l82.334,142.6Z" transform="translate(1792.204 -3967.531) rotate(-150)" fill="#fd7b3d"/><path d="M0,142.6,82.33,0l82.334,142.6Z" transform="translate(1792.204 -5449.144) rotate(-150)" fill="#af205e"/><path d="M0,142.6,82.33,0l82.334,142.6Z" transform="translate(1792.204 -4461.46) rotate(-150)" fill="#fd7b3d"/><path d="M0,142.6,82.33,0l82.334,142.6Z" transform="translate(1792.204 -5943.072) rotate(-150)" fill="#fd7b3d"/><path d="M0,142.6,82.33,0l82.334,142.6Z" transform="translate(1792.204 -4955.042) rotate(-150)" fill="#af205e"/><path d="M0,142.6,82.33,0l82.334,142.6Z" transform="translate(1792.204 -6436.654) rotate(-150)" fill="#af205e"/><path d="M0,142.6,82.33,0l82.334,142.6Z" transform="translate(-631.257 -5366.677) rotate(-150)" fill="#fd7b3d"/><path d="M0,142.6,82.33,0l82.334,142.6Z" transform="translate(-631.257 -5860.607) rotate(-150)" fill="#fd7b3d"/><path d="M0,142.6,82.33,0l82.334,142.6Z" transform="translate(-631.257 -6354.187) rotate(-150)" fill="#af205e"/><path d="M0,142.6,82.33,0l82.334,142.6Z" transform="translate(509.206 -4708.165) rotate(-150)" fill="#fd7b3d"/><path d="M0,142.6,82.33,0l82.334,142.6Z" transform="translate(509.206 -6189.777) rotate(-150)" fill="#af205e"/><path d="M0,142.6,82.33,0l82.334,142.6Z" transform="translate(509.206 -5202.093) rotate(-150)" fill="#fd7b3d"/><path d="M0,142.6,82.33,0l82.334,142.6Z" transform="translate(509.206 -6683.706) rotate(-150)" fill="#af205e"/><path d="M0,142.6,82.33,0l82.334,142.6Z" transform="translate(509.206 -5695.675) rotate(-150)" fill="#af205e"/><path d="M0,142.6,82.33,0l82.334,142.6Z" transform="translate(1649.669 -4049.824) rotate(-150)" fill="#fd7b3d"/><path d="M0,142.6,82.33,0l82.334,142.6Z" transform="translate(1649.669 -5531.436) rotate(-150)" fill="#af205e"/><path d="M0,142.6,82.33,0l82.334,142.6Z" transform="translate(1649.669 -4543.754) rotate(-150)" fill="#fd7b3d"/><path d="M0,142.6,82.33,0l82.334,142.6Z" transform="translate(1649.669 -6025.366) rotate(-150)" fill="#af205e"/><path d="M0,142.6,82.33,0l82.334,142.6Z" transform="translate(1649.669 -5037.334) rotate(-150)" fill="#af205e"/><path d="M0,142.6,82.33,0l82.334,142.6Z" transform="translate(1649.669 -6518.947) rotate(-150)" fill="#af205e"/><path d="M0,142.6,82.33,0l82.334,142.6Z" transform="translate(-773.792 -5448.971) rotate(-150)" fill="#fd7b3d"/><path d="M0,142.6,82.33,0l82.334,142.6Z" transform="translate(-773.792 -5942.899) rotate(-150)" fill="#fd7b3d"/><path d="M0,142.6,82.33,0l82.334,142.6Z" transform="translate(-773.792 -6436.481) rotate(-150)" fill="#fd7b3d"/><path d="M0,142.6,82.33,0l82.334,142.6Z" transform="translate(366.671 -4790.457) rotate(-150)" fill="#fd7b3d"/><path d="M0,142.6,82.33,0l82.334,142.6Z" transform="translate(366.671 -6272.069) rotate(-150)" fill="#af205e"/><path d="M0,142.6,82.33,0l82.334,142.6Z" transform="translate(366.671 -5284.385) rotate(-150)" fill="#fd7b3d"/><path d="M0,142.6,82.33,0l82.334,142.6Z" transform="translate(366.671 -6765.997) rotate(-150)" fill="#af205e"/><path d="M0,142.6,82.33,0l82.334,142.6Z" transform="translate(366.671 -5777.968) rotate(-150)" fill="#af205e"/><path d="M0,142.6,82.33,0l82.334,142.6Z" transform="translate(1507.135 -4132.118) rotate(-150)" fill="#fd7b3d"/><path d="M0,142.6,82.33,0l82.334,142.6Z" transform="translate(1507.135 -5613.729) rotate(-150)" fill="#af205e"/><path d="M0,142.6,82.33,0l82.334,142.6Z" transform="translate(1507.135 -4626.045) rotate(-150)" fill="#fd7b3d"/><path d="M0,142.6,82.33,0l82.334,142.6Z" transform="translate(1507.135 -6107.659) rotate(-150)" fill="#af205e"/><path d="M0,142.6,82.33,0l82.334,142.6Z" transform="translate(1507.135 -5119.628) rotate(-150)" fill="#af205e"/><path d="M0,142.6,82.33,0l82.334,142.6Z" transform="translate(1507.135 -6601.241) rotate(-150)" fill="#af205e"/><path d="M0,142.6,82.33,0l82.334,142.6Z" transform="translate(-916.327 -5531.263) rotate(-150)" fill="#fd7b3d"/><path d="M0,142.6,82.33,0l82.334,142.6Z" transform="translate(-916.327 -6025.19) rotate(-150)" fill="#fd7b3d"/><path d="M0,142.6,82.33,0l82.334,142.6Z" transform="translate(-916.327 -6518.774) rotate(-150)" fill="#af205e"/><path d="M0,142.6,82.33,0l82.334,142.6Z" transform="translate(224.137 -6354.36) rotate(-150)" fill="#af205e"/><path d="M0,142.6,82.33,0l82.334,142.6Z" transform="translate(224.137 -5366.677) rotate(-150)" fill="#fd7b3d"/><path d="M0,142.6,82.33,0l82.334,142.6Z" transform="translate(224.137 -5860.259) rotate(-150)" fill="#fd7b3d"/><path d="M0,142.6,82.33,0l82.334,142.6Z" transform="translate(1364.599 -4214.409) rotate(-150)" fill="#fd7b3d"/><path d="M0,142.6,82.33,0l82.334,142.6Z" transform="translate(1364.599 -5696.021) rotate(-150)" fill="#af205e"/><path d="M0,142.6,82.33,0l82.334,142.6Z" transform="translate(1364.599 -4708.338) rotate(-150)" fill="#fd7b3d"/><path d="M0,142.6,82.33,0l82.334,142.6Z" transform="translate(1364.599 -6189.95) rotate(-150)" fill="#af205e"/><path d="M0,142.6,82.33,0l82.334,142.6Z" transform="translate(1364.599 -5201.919) rotate(-150)" fill="#fd7b3d"/><path d="M0,142.6,82.33,0l82.334,142.6Z" transform="translate(1364.599 -6683.531) rotate(-150)" fill="#af205e"/><path d="M0,142.6,82.33,0l82.334,142.6Z" transform="translate(-1058.861 -5613.554) rotate(-150)" fill="#fd7b3d"/><path d="M0,142.6,82.33,0l82.334,142.6Z" transform="translate(-1058.861 -6107.484) rotate(-150)" fill="#fd7b3d"/><path d="M0,142.6,82.33,0l82.334,142.6Z" transform="translate(-1058.861 -6601.064) rotate(-150)" fill="#af205e"/><path d="M0,142.6,82.33,0l82.334,142.6Z" transform="translate(81.602 -4955.042) rotate(-150)" fill="#fd7b3d"/><path d="M0,142.6,82.33,0l82.334,142.6Z" transform="translate(81.602 -6436.654) rotate(-150)" fill="#af205e"/><path d="M0,142.6,82.33,0l82.334,142.6Z" transform="translate(81.602 -5448.971) rotate(-150)" fill="#fd7b3d"/><path d="M0,142.6,82.33,0l82.334,142.6Z" transform="translate(81.602 -5942.551) rotate(-150)" fill="#af205e"/><path d="M0,142.6,82.33,0l82.334,142.6Z" transform="translate(1222.065 -4296.701) rotate(-150)" fill="#fd7b3d"/><path d="M0,142.6,82.33,0l82.334,142.6Z" transform="translate(1222.065 -5778.313) rotate(-150)" fill="#af205e"/><path d="M0,142.6,82.33,0l82.334,142.6Z" transform="translate(1222.065 -4790.63) rotate(-150)" fill="#fd7b3d"/><path d="M0,142.6,82.33,0l82.334,142.6Z" transform="translate(1222.065 -6272.242) rotate(-150)" fill="#af205e"/><path d="M0,142.6,82.33,0l82.334,142.6Z" transform="translate(1222.065 -5284.212) rotate(-150)" fill="#af205e"/><path d="M0,142.6,82.33,0l82.334,142.6Z" transform="translate(1222.065 -6765.824) rotate(-150)" fill="#af205e"/><path d="M0,142.6,82.33,0l82.334,142.6Z" transform="translate(-1201.396 -5695.848) rotate(-150)" fill="#fd7b3d"/><path d="M0,142.6,82.33,0l82.334,142.6Z" transform="translate(-1201.396 -6189.777) rotate(-150)" fill="#fd7b3d"/><path d="M0,142.6,82.33,0l82.334,142.6Z" transform="translate(-1201.396 -6683.357) rotate(-150)" fill="#fd7b3d"/><path d="M0,142.6,82.33,0l82.334,142.6Z" transform="translate(-60.933 -5037.334) rotate(-150)" fill="#fd7b3d"/><path d="M0,142.6,82.33,0l82.334,142.6Z" transform="translate(-60.933 -6518.947) rotate(-150)" fill="#af205e"/><path d="M0,142.6,82.33,0l82.334,142.6Z" transform="translate(-60.933 -5531.263) rotate(-150)" fill="#fd7b3d"/><path d="M0,142.6,82.33,0l82.334,142.6Z" transform="translate(-60.933 -6024.845) rotate(-150)" fill="#af205e"/><path d="M0,142.6,82.33,0l82.334,142.6Z" transform="translate(1079.53 -4378.995) rotate(-150)" fill="#fd7b3d"/><path d="M0,142.6,82.33,0l82.334,142.6Z" transform="translate(1079.53 -5860.607) rotate(-150)" fill="#af205e"/><path d="M0,142.6,82.33,0l82.334,142.6Z" transform="translate(1079.53 -4872.924) rotate(-150)" fill="#fd7b3d"/><path d="M0,142.6,82.33,0l82.334,142.6Z" transform="translate(1079.53 -6354.536) rotate(-150)" fill="#af205e"/><path d="M0,142.6,82.33,0l82.334,142.6Z" transform="translate(1079.53 -5366.504) rotate(-150)" fill="#af205e"/><path d="M0,142.6,82.33,0l82.334,142.6Z" transform="translate(-1343.931 -6765.651) rotate(-150)" fill="#fd7b3d"/><path d="M0,142.6,82.33,0l82.334,142.6Z" transform="translate(-203.468 -5119.628) rotate(-150)" fill="#fd7b3d"/><path d="M0,142.6,82.33,0l82.334,142.6Z" transform="translate(-203.468 -6601.241) rotate(-150)" fill="#af205e"/><path d="M0,142.6,82.33,0l82.334,142.6Z" transform="translate(-203.468 -5613.554) rotate(-150)" fill="#fd7b3d"/><path d="M0,142.6,82.33,0l82.334,142.6Z" transform="translate(-203.468 -6107.137) rotate(-150)" fill="#fd7b3d"/><path d="M0,142.6,82.33,0l82.334,142.6Z" transform="translate(936.995 -4461.288) rotate(-150)" fill="#fd7b3d"/><path d="M0,142.6,82.33,0l82.334,142.6Z" transform="translate(936.995 -5942.899) rotate(-150)" fill="#af205e"/><path d="M0,142.6,82.33,0l82.334,142.6Z" transform="translate(936.995 -4955.215) rotate(-150)" fill="#fd7b3d"/><path d="M0,142.6,82.33,0l82.334,142.6Z" transform="translate(936.995 -6436.827) rotate(-150)" fill="#af205e"/><path d="M0,142.6,82.33,0l82.334,142.6Z" transform="translate(936.995 -5448.798) rotate(-150)" fill="#fd7b3d"/><path d="M0,142.6,82.33,0l82.334,142.6Z" transform="translate(-1343.965 -6107.41) rotate(30)" fill="#ef514b"/><path d="M0,142.6,82.33,0l82.334,142.6Z" transform="translate(-1343.965 -6601.337) rotate(30)" fill="#ef514b"/><path d="M0,142.6,82.33,0l82.334,142.6Z" transform="translate(-203.502 -5448.895) rotate(30)" fill="#ef514b"/><path d="M0,142.6,82.33,0l82.334,142.6Z" transform="translate(-203.502 -6930.506) rotate(30)" fill="#ef514b"/><path d="M0,142.6,82.33,0l82.334,142.6Z" transform="translate(-203.502 -5942.823) rotate(30)" fill="#ef514b"/><path d="M0,142.6,82.33,0l82.334,142.6Z" transform="translate(-203.502 -6436.405) rotate(30)" fill="#ef514b"/><path d="M0,142.6,82.33,0l82.334,142.6Z" transform="translate(936.961 -4790.554) rotate(30)" fill="#fbbb30"/><path d="M0,142.6,82.33,0l82.334,142.6Z" transform="translate(936.961 -6272.167) rotate(30)" fill="#ef514b"/><path d="M0,142.6,82.33,0l82.334,142.6Z" transform="translate(936.961 -5284.484) rotate(30)" fill="#ef514b"/><path d="M0,142.6,82.33,0l82.334,142.6Z" transform="translate(936.961 -6766.096) rotate(30)" fill="#af205e"/><path d="M0,142.6,82.33,0l82.334,142.6Z" transform="translate(936.961 -5778.064) rotate(30)" fill="#ef514b"/><path d="M0,142.6,82.33,0l82.334,142.6Z" transform="translate(-1201.43 -6025.117) rotate(30)" fill="#ef514b"/><path d="M0,142.6,82.33,0l82.334,142.6Z" transform="translate(-1201.43 -6519.046) rotate(30)" fill="#ef514b"/><path d="M0,142.6,82.33,0l82.334,142.6Z" transform="translate(-1201.43 -7012.626) rotate(30)" fill="#ef514b"/><path d="M0,142.6,82.33,0l82.334,142.6Z" transform="translate(-60.967 -5366.604) rotate(30)" fill="#ef514b"/><path d="M0,142.6,82.33,0l82.334,142.6Z" transform="translate(-60.967 -6848.216) rotate(30)" fill="#ef514b"/><path d="M0,142.6,82.33,0l82.334,142.6Z" transform="translate(-60.967 -5860.531) rotate(30)" fill="#ef514b"/><path d="M0,142.6,82.33,0l82.334,142.6Z" transform="translate(-60.967 -6354.111) rotate(30)" fill="#ef514b"/><path d="M0,142.6,82.33,0l82.334,142.6Z" transform="translate(1079.496 -4708.263) rotate(30)" fill="#ef514b"/><path d="M0,142.6,82.33,0l82.334,142.6Z" transform="translate(1079.496 -6189.876) rotate(30)" fill="#af205e"/><path d="M0,142.6,82.33,0l82.334,142.6Z" transform="translate(1079.496 -5202.19) rotate(30)" fill="#ef514b"/><path d="M0,142.6,82.33,0l82.334,142.6Z" transform="translate(1079.496 -6683.802) rotate(30)" fill="#ef514b"/><path d="M0,142.6,82.33,0l82.334,142.6Z" transform="translate(1079.496 -5695.772) rotate(30)" fill="#ef514b"/><path d="M0,142.6,82.33,0l82.334,142.6Z" transform="translate(-1058.896 -5942.823) rotate(30)" fill="#ef514b"/><path d="M0,142.6,82.33,0l82.334,142.6Z" transform="translate(-1058.896 -6930.334) rotate(30)" fill="#ef514b"/><path d="M0,142.6,82.33,0l82.334,142.6Z" transform="translate(81.568 -6765.923) rotate(30)" fill="#af205e"/><path d="M0,142.6,82.33,0l82.334,142.6Z" transform="translate(81.568 -5778.24) rotate(30)" fill="#ef514b"/><path d="M0,142.6,82.33,0l82.334,142.6Z" transform="translate(81.568 -6271.82) rotate(30)" fill="#ef514b"/><path d="M0,142.6,82.33,0l82.334,142.6Z" transform="translate(1222.03 -6107.582) rotate(30)" fill="#af205e"/><path d="M0,142.6,82.33,0l82.334,142.6Z" transform="translate(1222.03 -5119.899) rotate(30)" fill="#ef514b"/><path d="M0,142.6,82.33,0l82.334,142.6Z" transform="translate(1222.03 -6601.511) rotate(30)" fill="#af205e"/><path d="M0,142.6,82.33,0l82.334,142.6Z" transform="translate(1222.03 -5613.48) rotate(30)" fill="#ef514b"/><path d="M0,142.6,82.33,0l82.334,142.6Z" transform="translate(-916.361 -6354.459) rotate(30)" fill="#ef514b"/><path d="M0,142.6,82.33,0l82.334,142.6Z" transform="translate(-916.361 -6848.041) rotate(30)" fill="#ef514b"/><path d="M0,142.6,82.33,0l82.334,142.6Z" transform="translate(224.102 -5202.017) rotate(30)" fill="#fbbb30"/><path d="M0,142.6,82.33,0l82.334,142.6Z" transform="translate(224.102 -6683.629) rotate(30)" fill="#ef514b"/><path d="M0,142.6,82.33,0l82.334,142.6Z" transform="translate(224.102 -5695.946) rotate(30)" fill="#ef514b"/><path d="M0,142.6,82.33,0l82.334,142.6Z" transform="translate(224.102 -6189.528) rotate(30)" fill="#ef514b"/><path d="M0,142.6,82.33,0l82.334,142.6Z" transform="translate(1364.565 -4543.678) rotate(30)" fill="#ef514b"/><path d="M0,142.6,82.33,0l82.334,142.6Z" transform="translate(1364.565 -6025.29) rotate(30)" fill="#af205e"/><path d="M0,142.6,82.33,0l82.334,142.6Z" transform="translate(1364.565 -5037.606) rotate(30)" fill="#ef514b"/><path d="M0,142.6,82.33,0l82.334,142.6Z" transform="translate(1364.565 -6519.218) rotate(30)" fill="#af205e"/><path d="M0,142.6,82.33,0l82.334,142.6Z" transform="translate(1364.565 -5531.187) rotate(30)" fill="#ef514b"/><path d="M0,142.6,82.33,0l82.334,142.6Z" transform="translate(1364.565 -7012.799) rotate(30)" fill="#af205e"/><path d="M0,142.6,82.33,0l82.334,142.6Z" transform="translate(-773.826 -5778.24) rotate(30)" fill="#ef514b"/><path d="M0,142.6,82.33,0l82.334,142.6Z" transform="translate(-773.826 -6272.167) rotate(30)" fill="#ef514b"/><path d="M0,142.6,82.33,0l82.334,142.6Z" transform="translate(-773.826 -6765.748) rotate(30)" fill="#ef514b"/><path d="M0,142.6,82.33,0l82.334,142.6Z" transform="translate(366.637 -5119.725) rotate(30)" fill="#ef514b"/><path d="M0,142.6,82.33,0l82.334,142.6Z" transform="translate(366.637 -6601.337) rotate(30)" fill="#af205e"/><path d="M0,142.6,82.33,0l82.334,142.6Z" transform="translate(366.637 -5613.653) rotate(30)" fill="#ef514b"/><path d="M0,142.6,82.33,0l82.334,142.6Z" transform="translate(366.637 -6107.235) rotate(30)" fill="#ef514b"/><path d="M0,142.6,82.33,0l82.334,142.6Z" transform="translate(1507.1 -4461.384) rotate(30)" fill="#ef514b"/><path d="M0,142.6,82.33,0l82.334,142.6Z" transform="translate(1507.1 -5942.996) rotate(30)" fill="#ef514b"/><path d="M0,142.6,82.33,0l82.334,142.6Z" transform="translate(1507.1 -4955.313) rotate(30)" fill="#ef514b"/><path d="M0,142.6,82.33,0l82.334,142.6Z" transform="translate(1507.1 -6436.926) rotate(30)" fill="#ef514b"/><path d="M0,142.6,82.33,0l82.334,142.6Z" transform="translate(1507.1 -5448.895) rotate(30)" fill="#ef514b"/><path d="M0,142.6,82.33,0l82.334,142.6Z" transform="translate(1507.1 -6930.506) rotate(30)" fill="#ef514b"/><path d="M0,142.6,82.33,0l82.334,142.6Z" transform="translate(-631.291 -5695.946) rotate(30)" fill="#ef514b"/><path d="M0,142.6,82.33,0l82.334,142.6Z" transform="translate(-631.291 -6189.876) rotate(30)" fill="#ef514b"/><path d="M0,142.6,82.33,0l82.334,142.6Z" transform="translate(-631.291 -6683.457) rotate(30)" fill="#ef514b"/><path d="M0,142.6,82.33,0l82.334,142.6Z" transform="translate(509.172 -5037.434) rotate(30)" fill="#ef514b"/><path d="M0,142.6,82.33,0l82.334,142.6Z" transform="translate(509.172 -6519.046) rotate(30)" fill="#ef514b"/><path d="M0,142.6,82.33,0l82.334,142.6Z" transform="translate(509.172 -5531.361) rotate(30)" fill="#ef514b"/><path d="M0,142.6,82.33,0l82.334,142.6Z" transform="translate(509.172 -7012.973) rotate(30)" fill="#ef514b"/><path d="M0,142.6,82.33,0l82.334,142.6Z" transform="translate(509.172 -6024.941) rotate(30)" fill="#ef514b"/><path d="M0,142.6,82.33,0l82.334,142.6Z" transform="translate(1649.635 -4379.093) rotate(30)" fill="#ef514b"/><path d="M0,142.6,82.33,0l82.334,142.6Z" transform="translate(1649.635 -5860.706) rotate(30)" fill="#af205e"/><path d="M0,142.6,82.33,0l82.334,142.6Z" transform="translate(1649.635 -4873.021) rotate(30)" fill="#ef514b"/><path d="M0,142.6,82.33,0l82.334,142.6Z" transform="translate(1649.635 -6354.632) rotate(30)" fill="#af205e"/><path d="M0,142.6,82.33,0l82.334,142.6Z" transform="translate(1649.635 -5366.604) rotate(30)" fill="#ef514b"/><path d="M0,142.6,82.33,0l82.334,142.6Z" transform="translate(1649.635 -6848.216) rotate(30)" fill="#af205e"/><path d="M0,142.6,82.33,0l82.334,142.6Z" transform="translate(-488.756 -5613.653) rotate(30)" fill="#ef514b"/><path d="M0,142.6,82.33,0l82.334,142.6Z" transform="translate(-488.756 -6107.582) rotate(30)" fill="#ef514b"/><path d="M0,142.6,82.33,0l82.334,142.6Z" transform="translate(-488.756 -6601.165) rotate(30)" fill="#ef514b"/><path d="M0,142.6,82.33,0l82.334,142.6Z" transform="translate(651.707 -4955.14) rotate(30)" fill="#ef514b"/><path d="M0,142.6,82.33,0l82.334,142.6Z" transform="translate(651.707 -6436.752) rotate(30)" fill="#af205e"/><path d="M0,142.6,82.33,0l82.334,142.6Z" transform="translate(651.707 -5449.07) rotate(30)" fill="#ef514b"/><path d="M0,142.6,82.33,0l82.334,142.6Z" transform="translate(651.707 -6930.682) rotate(30)" fill="#af205e"/><path d="M0,142.6,82.33,0l82.334,142.6Z" transform="translate(651.707 -5942.651) rotate(30)" fill="#ef514b"/><path d="M0,142.6,82.33,0l82.334,142.6Z" transform="translate(1792.17 -4296.801) rotate(30)" fill="#ef514b"/><path d="M0,142.6,82.33,0l82.334,142.6Z" transform="translate(1792.17 -5778.413) rotate(30)" fill="#ef514b"/><path d="M0,142.6,82.33,0l82.334,142.6Z" transform="translate(1792.17 -4790.729) rotate(30)" fill="#ef514b"/><path d="M0,142.6,82.33,0l82.334,142.6Z" transform="translate(1792.17 -6272.342) rotate(30)" fill="#ef514b"/><path d="M0,142.6,82.33,0l82.334,142.6Z" transform="translate(1792.17 -5284.311) rotate(30)" fill="#ef514b"/><path d="M0,142.6,82.33,0l82.334,142.6Z" transform="translate(1792.17 -6765.923) rotate(30)" fill="#af205e"/><path d="M0,142.6,82.33,0l82.334,142.6Z" transform="translate(-346.222 -5531.361) rotate(30)" fill="#ef514b"/><path d="M0,142.6,82.33,0l82.334,142.6Z" transform="translate(-346.222 -7012.973) rotate(30)" fill="#ef514b"/><path d="M0,142.6,82.33,0l82.334,142.6Z" transform="translate(-346.222 -6025.29) rotate(30)" fill="#ef514b"/><path d="M0,142.6,82.33,0l82.334,142.6Z" transform="translate(-346.222 -6518.87) rotate(30)" fill="#ef514b"/><path d="M0,142.6,82.33,0l82.334,142.6Z" transform="translate(794.241 -4872.848) rotate(30)" fill="#ef514b"/><path d="M0,142.6,82.33,0l82.334,142.6Z" transform="translate(794.241 -6354.459) rotate(30)" fill="#af205e"/><path d="M0,142.6,82.33,0l82.334,142.6Z" transform="translate(794.241 -5366.776) rotate(30)" fill="#ef514b"/><path d="M0,142.6,82.33,0l82.334,142.6Z" transform="translate(794.241 -6848.389) rotate(30)" fill="#af205e"/><path d="M0,142.6,82.33,0l82.334,142.6Z" transform="translate(794.241 -5860.358) rotate(30)" fill="#ef514b"/><path d="M0,142.6,82.33,0l82.334,142.6Z" transform="translate(1934.705 -4214.507) rotate(30)" fill="#ef514b"/><path d="M0,142.6,82.33,0l82.334,142.6Z" transform="translate(1934.705 -5696.119) rotate(30)" fill="#ef514b"/><path d="M0,142.6,82.33,0l82.334,142.6Z" transform="translate(1934.705 -4708.437) rotate(30)" fill="#ef514b"/><path d="M0,142.6,82.33,0l82.334,142.6Z" transform="translate(1934.705 -6190.049) rotate(30)" fill="#ef514b"/><path d="M0,142.6,82.33,0l82.334,142.6Z" transform="translate(1934.705 -5202.017) rotate(30)" fill="#ef514b"/><path d="M0,142.6,82.33,0l82.334,142.6Z" transform="translate(1934.705 -6683.629) rotate(30)" fill="#af205e"/><path d="M0,142.6,82.33,0l82.334,142.6Z" transform="translate(-346.186 -5366.68) rotate(-150)" fill="#e71865"/><path d="M0,142.6,82.33,0l82.334,142.6Z" transform="translate(-346.186 -5860.608) rotate(-150)" fill="#e71865"/><path d="M0,142.6,82.33,0l82.334,142.6Z" transform="translate(-346.186 -6354.19) rotate(-150)" fill="#e71865"/><path d="M0,142.6,82.33,0l82.334,142.6Z" transform="translate(794.276 -4708.166) rotate(-150)" fill="#e71865"/><path d="M0,142.6,82.33,0l82.334,142.6Z" transform="translate(794.276 -6189.778) rotate(-150)" fill="#e71865"/><path d="M0,142.6,82.33,0l82.334,142.6Z" transform="translate(794.276 -5202.093) rotate(-150)" fill="#e71865"/><path d="M0,142.6,82.33,0l82.334,142.6Z" transform="translate(794.276 -6683.706) rotate(-150)" fill="#e71865"/><path d="M0,142.6,82.33,0l82.334,142.6Z" transform="translate(794.276 -5695.675) rotate(-150)" fill="#e71865"/><path d="M0,142.6,82.33,0l82.334,142.6Z" transform="translate(1934.739 -4049.827) rotate(-150)" fill="#e71865"/><path d="M0,142.6,82.33,0l82.334,142.6Z" transform="translate(1934.739 -5531.439) rotate(-150)" fill="#e71865"/><path d="M0,142.6,82.33,0l82.334,142.6Z" transform="translate(1934.739 -4543.754) rotate(-150)" fill="#e71865"/><path d="M0,142.6,82.33,0l82.334,142.6Z" transform="translate(1934.739 -6025.366) rotate(-150)" fill="#e71865"/><path d="M0,142.6,82.33,0l82.334,142.6Z" transform="translate(1934.739 -5037.334) rotate(-150)" fill="#e71865"/><path d="M0,142.6,82.33,0l82.334,142.6Z" transform="translate(1934.739 -6518.949) rotate(-150)" fill="#e71865"/><path d="M0,142.6,82.33,0l82.334,142.6Z" transform="translate(-488.721 -5448.972) rotate(-150)" fill="#e71865"/><path d="M0,142.6,82.33,0l82.334,142.6Z" transform="translate(-488.721 -5942.899) rotate(-150)" fill="#e71865"/><path d="M0,142.6,82.33,0l82.334,142.6Z" transform="translate(-488.721 -6436.481) rotate(-150)" fill="#e71865"/><path d="M0,142.6,82.33,0l82.334,142.6Z" transform="translate(651.742 -4790.457) rotate(-150)" fill="#e71865"/><path d="M0,142.6,82.33,0l82.334,142.6Z" transform="translate(651.742 -6272.069) rotate(-150)" fill="#e71865"/><path d="M0,142.6,82.33,0l82.334,142.6Z" transform="translate(651.742 -5284.386) rotate(-150)" fill="#e71865"/><path d="M0,142.6,82.33,0l82.334,142.6Z" transform="translate(651.742 -6766) rotate(-150)" fill="#e71865"/><path d="M0,142.6,82.33,0l82.334,142.6Z" transform="translate(651.742 -5777.968) rotate(-150)" fill="#e71865"/><path d="M0,142.6,82.33,0l82.334,142.6Z" transform="translate(1792.205 -4132.118) rotate(-150)" fill="#e71865"/><path d="M0,142.6,82.33,0l82.334,142.6Z" transform="translate(1792.205 -5613.729) rotate(-150)" fill="#e71865"/><path d="M0,142.6,82.33,0l82.334,142.6Z" transform="translate(1792.205 -4626.046) rotate(-150)" fill="#e71865"/><path d="M0,142.6,82.33,0l82.334,142.6Z" transform="translate(1792.205 -6107.659) rotate(-150)" fill="#e71865"/><path d="M0,142.6,82.33,0l82.334,142.6Z" transform="translate(1792.205 -5119.628) rotate(-150)" fill="#e71865"/><path d="M0,142.6,82.33,0l82.334,142.6Z" transform="translate(1792.205 -6601.241) rotate(-150)" fill="#e71865"/><path d="M0,142.6,82.33,0l82.334,142.6Z" transform="translate(-631.256 -5531.263) rotate(-150)" fill="#fbbb30"/><path d="M0,142.6,82.33,0l82.334,142.6Z" transform="translate(-631.256 -6025.192) rotate(-150)" fill="#e71865"/><path d="M0,142.6,82.33,0l82.334,142.6Z" transform="translate(-631.256 -6518.774) rotate(-150)" fill="#e71865"/><path d="M0,142.6,82.33,0l82.334,142.6Z" transform="translate(509.207 -4872.751) rotate(-150)" fill="#e71865"/><path d="M0,142.6,82.33,0l82.334,142.6Z" transform="translate(509.207 -6354.363) rotate(-150)" fill="#e71865"/><path d="M0,142.6,82.33,0l82.334,142.6Z" transform="translate(509.207 -5366.68) rotate(-150)" fill="#e71865"/><path d="M0,142.6,82.33,0l82.334,142.6Z" transform="translate(509.207 -5860.26) rotate(-150)" fill="#e71865"/><path d="M0,142.6,82.33,0l82.334,142.6Z" transform="translate(1649.67 -4214.41) rotate(-150)" fill="#e71865"/><path d="M0,142.6,82.33,0l82.334,142.6Z" transform="translate(1649.67 -5696.022) rotate(-150)" fill="#e71865"/><path d="M0,142.6,82.33,0l82.334,142.6Z" transform="translate(1649.67 -4708.339) rotate(-150)" fill="#e71865"/><path d="M0,142.6,82.33,0l82.334,142.6Z" transform="translate(1649.67 -6189.951) rotate(-150)" fill="#e71865"/><path d="M0,142.6,82.33,0l82.334,142.6Z" transform="translate(1649.67 -5201.921) rotate(-150)" fill="#e71865"/><path d="M0,142.6,82.33,0l82.334,142.6Z" transform="translate(1649.67 -6683.533) rotate(-150)" fill="#e71865"/><path d="M0,142.6,82.33,0l82.334,142.6Z" transform="translate(-773.791 -5613.557) rotate(-150)" fill="#e71865"/><path d="M0,142.6,82.33,0l82.334,142.6Z" transform="translate(-773.791 -6107.486) rotate(-150)" fill="#e71865"/><path d="M0,142.6,82.33,0l82.334,142.6Z" transform="translate(-773.791 -6601.066) rotate(-150)" fill="#e71865"/><path d="M0,142.6,82.33,0l82.334,142.6Z" transform="translate(366.672 -4955.043) rotate(-150)" fill="#e71865"/><path d="M0,142.6,82.33,0l82.334,142.6Z" transform="translate(366.672 -6436.655) rotate(-150)" fill="#e71865"/><path d="M0,142.6,82.33,0l82.334,142.6Z" transform="translate(366.672 -5448.972) rotate(-150)" fill="#e71865"/><path d="M0,142.6,82.33,0l82.334,142.6Z" transform="translate(366.672 -5942.554) rotate(-150)" fill="#e71865"/><path d="M0,142.6,82.33,0l82.334,142.6Z" transform="translate(1507.135 -4296.704) rotate(-150)" fill="#fbbb30"/><path d="M0,142.6,82.33,0l82.334,142.6Z" transform="translate(1507.135 -5778.316) rotate(-150)" fill="#e71865"/><path d="M0,142.6,82.33,0l82.334,142.6Z" transform="translate(1507.135 -4790.633) rotate(-150)" fill="#e71865"/><path d="M0,142.6,82.33,0l82.334,142.6Z" transform="translate(1507.135 -6272.245) rotate(-150)" fill="#e71865"/><path d="M0,142.6,82.33,0l82.334,142.6Z" transform="translate(1507.135 -5284.213) rotate(-150)" fill="#e71865"/><path d="M0,142.6,82.33,0l82.334,142.6Z" transform="translate(1507.135 -6765.825) rotate(-150)" fill="#e71865"/><path d="M0,142.6,82.33,0l82.334,142.6Z" transform="translate(-916.326 -5695.85) rotate(-150)" fill="#e71865"/><path d="M0,142.6,82.33,0l82.334,142.6Z" transform="translate(-916.326 -6189.778) rotate(-150)" fill="#e71865"/><path d="M0,142.6,82.33,0l82.334,142.6Z" transform="translate(-916.326 -6683.36) rotate(-150)" fill="#e71865"/><path d="M0,142.6,82.33,0l82.334,142.6Z" transform="translate(224.137 -5037.334) rotate(-150)" fill="#e71865"/><path d="M0,142.6,82.33,0l82.334,142.6Z" transform="translate(224.137 -6518.949) rotate(-150)" fill="#e71865"/><path d="M0,142.6,82.33,0l82.334,142.6Z" transform="translate(224.137 -5531.263) rotate(-150)" fill="#e71865"/><path d="M0,142.6,82.33,0l82.334,142.6Z" transform="translate(224.137 -6024.845) rotate(-150)" fill="#e71865"/><path d="M0,142.6,82.33,0l82.334,142.6Z" transform="translate(1364.6 -4378.997) rotate(-150)" fill="#e71865"/><path d="M0,142.6,82.33,0l82.334,142.6Z" transform="translate(1364.6 -5860.608) rotate(-150)" fill="#e71865"/><path d="M0,142.6,82.33,0l82.334,142.6Z" transform="translate(1364.6 -4872.924) rotate(-150)" fill="#e71865"/><path d="M0,142.6,82.33,0l82.334,142.6Z" transform="translate(1364.6 -6354.536) rotate(-150)" fill="#e71865"/><path d="M0,142.6,82.33,0l82.334,142.6Z" transform="translate(1364.6 -5366.504) rotate(-150)" fill="#e71865"/><path d="M0,142.6,82.33,0l82.334,142.6Z" transform="translate(-1058.861 -6272.069) rotate(-150)" fill="#e71865"/><path d="M0,142.6,82.33,0l82.334,142.6Z" transform="translate(-1058.861 -6765.651) rotate(-150)" fill="#e71865"/><path d="M0,142.6,82.33,0l82.334,142.6Z" transform="translate(81.602 -5119.628) rotate(-150)" fill="#e71865"/><path d="M0,142.6,82.33,0l82.334,142.6Z" transform="translate(81.602 -6601.241) rotate(-150)" fill="#e71865"/><path d="M0,142.6,82.33,0l82.334,142.6Z" transform="translate(81.602 -5613.557) rotate(-150)" fill="#e71865"/><path d="M0,142.6,82.33,0l82.334,142.6Z" transform="translate(81.602 -6107.137) rotate(-150)" fill="#e71865"/><path d="M0,142.6,82.33,0l82.334,142.6Z" transform="translate(1222.066 -4461.288) rotate(-150)" fill="#e71865"/><path d="M0,142.6,82.33,0l82.334,142.6Z" transform="translate(1222.066 -5942.899) rotate(-150)" fill="#e71865"/><path d="M0,142.6,82.33,0l82.334,142.6Z" transform="translate(1222.066 -4955.216) rotate(-150)" fill="#e71865"/><path d="M0,142.6,82.33,0l82.334,142.6Z" transform="translate(1222.066 -6436.829) rotate(-150)" fill="#e71865"/><path d="M0,142.6,82.33,0l82.334,142.6Z" transform="translate(1222.066 -5448.798) rotate(-150)" fill="#e71865"/><path d="M0,142.6,82.33,0l82.334,142.6Z" transform="translate(-1201.396 -5860.434) rotate(-150)" fill="#e71865"/><path d="M0,142.6,82.33,0l82.334,142.6Z" transform="translate(-1201.396 -6354.363) rotate(-150)" fill="#e71865"/><path d="M0,142.6,82.33,0l82.334,142.6Z" transform="translate(-60.933 -5201.921) rotate(-150)" fill="#fbbb30"/><path d="M0,142.6,82.33,0l82.334,142.6Z" transform="translate(-60.933 -6683.533) rotate(-150)" fill="#e71865"/><path d="M0,142.6,82.33,0l82.334,142.6Z" transform="translate(-60.933 -5695.85) rotate(-150)" fill="#e71865"/><path d="M0,142.6,82.33,0l82.334,142.6Z" transform="translate(-60.933 -6189.431) rotate(-150)" fill="#e71865"/><path d="M0,142.6,82.33,0l82.334,142.6Z" transform="translate(1079.531 -4543.58) rotate(-150)" fill="#e71865"/><path d="M0,142.6,82.33,0l82.334,142.6Z" transform="translate(1079.531 -6025.192) rotate(-150)" fill="#e71865"/><path d="M0,142.6,82.33,0l82.334,142.6Z" transform="translate(1079.531 -5037.51) rotate(-150)" fill="#e71865"/><path d="M0,142.6,82.33,0l82.334,142.6Z" transform="translate(1079.531 -6519.122) rotate(-150)" fill="#e71865"/><path d="M0,142.6,82.33,0l82.334,142.6Z" transform="translate(1079.531 -5531.09) rotate(-150)" fill="#e71865"/><path d="M0,142.6,82.33,0l82.334,142.6Z" transform="translate(-1343.931 -5942.727) rotate(-150)" fill="#e71865"/><path d="M0,142.6,82.33,0l82.334,142.6Z" transform="translate(-1343.931 -6436.655) rotate(-150)" fill="#e71865"/><path d="M0,142.6,82.33,0l82.334,142.6Z" transform="translate(-203.467 -6765.825) rotate(-150)" fill="#e71865"/><path d="M0,142.6,82.33,0l82.334,142.6Z" transform="translate(-203.467 -5778.14) rotate(-150)" fill="#e71865"/><path d="M0,142.6,82.33,0l82.334,142.6Z" transform="translate(-203.467 -6271.724) rotate(-150)" fill="#e71865"/><path d="M0,142.6,82.33,0l82.334,142.6Z" transform="translate(936.996 -6107.486) rotate(-150)" fill="#e71865"/><path d="M0,142.6,82.33,0l82.334,142.6Z" transform="translate(936.996 -5119.803) rotate(-150)" fill="#e71865"/><path d="M0,142.6,82.33,0l82.334,142.6Z" transform="translate(936.996 -6601.415) rotate(-150)" fill="#e71865"/><path d="M0,142.6,82.33,0l82.334,142.6Z" transform="translate(936.996 -5613.384) rotate(-150)" fill="#e71865"/><path d="M0,142.6,82.33,0l82.334,142.6Z" transform="translate(-1343.964 -6765.923) rotate(30)" fill="#d6185e"/><path d="M0,142.6,82.33,0l82.334,142.6Z" transform="translate(-203.501 -5613.48) rotate(30)" fill="#fbbb30"/><path d="M0,142.6,82.33,0l82.334,142.6Z" transform="translate(-203.501 -6107.41) rotate(30)" fill="#d6185e"/><path d="M0,142.6,82.33,0l82.334,142.6Z" transform="translate(-203.501 -6600.991) rotate(30)" fill="#d6185e"/><path d="M0,142.6,82.33,0l82.334,142.6Z" transform="translate(936.962 -4955.14) rotate(30)" fill="#d6185e"/><path d="M0,142.6,82.33,0l82.334,142.6Z" transform="translate(936.962 -6436.752) rotate(30)" fill="#d6185e"/><path d="M0,142.6,82.33,0l82.334,142.6Z" transform="translate(936.962 -5449.07) rotate(30)" fill="#d6185e"/><path d="M0,142.6,82.33,0l82.334,142.6Z" transform="translate(936.962 -6930.682) rotate(30)" fill="#d6185e"/><path d="M0,142.6,82.33,0l82.334,142.6Z" transform="translate(936.962 -5942.651) rotate(30)" fill="#d6185e"/><path d="M0,142.6,82.33,0l82.334,142.6Z" transform="translate(-1201.43 -6189.702) rotate(30)" fill="#fbbb30"/><path d="M0,142.6,82.33,0l82.334,142.6Z" transform="translate(-1201.43 -6683.632) rotate(30)" fill="#d6185e"/><path d="M0,142.6,82.33,0l82.334,142.6Z" transform="translate(-60.967 -5531.19) rotate(30)" fill="#ef514b"/><path d="M0,142.6,82.33,0l82.334,142.6Z" transform="translate(-60.967 -7012.802) rotate(30)" fill="#d6185e"/><path d="M0,142.6,82.33,0l82.334,142.6Z" transform="translate(-60.967 -6025.117) rotate(30)" fill="#d6185e"/><path d="M0,142.6,82.33,0l82.334,142.6Z" transform="translate(-60.967 -6518.7) rotate(30)" fill="#d6185e"/><path d="M0,142.6,82.33,0l82.334,142.6Z" transform="translate(1079.496 -4872.849) rotate(30)" fill="#d6185e"/><path d="M0,142.6,82.33,0l82.334,142.6Z" transform="translate(1079.496 -6354.461) rotate(30)" fill="#d6185e"/><path d="M0,142.6,82.33,0l82.334,142.6Z" transform="translate(1079.496 -5366.776) rotate(30)" fill="#ef514b"/><path d="M0,142.6,82.33,0l82.334,142.6Z" transform="translate(1079.496 -6848.389) rotate(30)" fill="#d6185e"/><path d="M0,142.6,82.33,0l82.334,142.6Z" transform="translate(1079.496 -5860.359) rotate(30)" fill="#d6185e"/><path d="M0,142.6,82.33,0l82.334,142.6Z" transform="translate(-1058.895 -6107.41) rotate(30)" fill="#d6185e"/><path d="M0,142.6,82.33,0l82.334,142.6Z" transform="translate(-1058.895 -6601.338) rotate(30)" fill="#d6185e"/><path d="M0,142.6,82.33,0l82.334,142.6Z" transform="translate(81.568 -5448.896) rotate(30)" fill="#ef514b"/><path d="M0,142.6,82.33,0l82.334,142.6Z" transform="translate(81.568 -6930.508) rotate(30)" fill="#d6185e"/><path d="M0,142.6,82.33,0l82.334,142.6Z" transform="translate(81.568 -5942.826) rotate(30)" fill="#d6185e"/><path d="M0,142.6,82.33,0l82.334,142.6Z" transform="translate(81.568 -6436.406) rotate(30)" fill="#d6185e"/><path d="M0,142.6,82.33,0l82.334,142.6Z" transform="translate(1222.031 -4790.556) rotate(30)" fill="#fbbb30"/><path d="M0,142.6,82.33,0l82.334,142.6Z" transform="translate(1222.031 -6272.168) rotate(30)" fill="#d6185e"/><path d="M0,142.6,82.33,0l82.334,142.6Z" transform="translate(1222.031 -5284.485) rotate(30)" fill="#d6185e"/><path d="M0,142.6,82.33,0l82.334,142.6Z" transform="translate(1222.031 -6766.097) rotate(30)" fill="#d6185e"/><path d="M0,142.6,82.33,0l82.334,142.6Z" transform="translate(1222.031 -5778.067) rotate(30)" fill="#d6185e"/><path d="M0,142.6,82.33,0l82.334,142.6Z" transform="translate(-916.36 -6025.117) rotate(30)" fill="#ef514b"/><path d="M0,142.6,82.33,0l82.334,142.6Z" transform="translate(-916.36 -6519.046) rotate(30)" fill="#d6185e"/><path d="M0,142.6,82.33,0l82.334,142.6Z" transform="translate(-916.36 -7012.626) rotate(30)" fill="#d6185e"/><path d="M0,142.6,82.33,0l82.334,142.6Z" transform="translate(224.103 -5366.604) rotate(30)" fill="#d6185e"/><path d="M0,142.6,82.33,0l82.334,142.6Z" transform="translate(224.103 -6848.216) rotate(30)" fill="#d6185e"/><path d="M0,142.6,82.33,0l82.334,142.6Z" transform="translate(224.103 -5860.532) rotate(30)" fill="#d6185e"/><path d="M0,142.6,82.33,0l82.334,142.6Z" transform="translate(224.103 -6354.114) rotate(30)" fill="#d6185e"/><path d="M0,142.6,82.33,0l82.334,142.6Z" transform="translate(1364.566 -4708.263) rotate(30)" fill="#ef514b"/><path d="M0,142.6,82.33,0l82.334,142.6Z" transform="translate(1364.566 -6189.876) rotate(30)" fill="#d6185e"/><path d="M0,142.6,82.33,0l82.334,142.6Z" transform="translate(1364.566 -5202.193) rotate(30)" fill="#d6185e"/><path d="M0,142.6,82.33,0l82.334,142.6Z" transform="translate(1364.566 -6683.805) rotate(30)" fill="#d6185e"/><path d="M0,142.6,82.33,0l82.334,142.6Z" transform="translate(1364.566 -5695.773) rotate(30)" fill="#d6185e"/><path d="M0,142.6,82.33,0l82.334,142.6Z" transform="translate(-773.825 -5942.826) rotate(30)" fill="#ef514b"/><path d="M0,142.6,82.33,0l82.334,142.6Z" transform="translate(-773.825 -6436.752) rotate(30)" fill="#d6185e"/><path d="M0,142.6,82.33,0l82.334,142.6Z" transform="translate(-773.825 -6930.335) rotate(30)" fill="#d6185e"/><path d="M0,142.6,82.33,0l82.334,142.6Z" transform="translate(366.638 -5284.311) rotate(30)" fill="#d6185e"/><path d="M0,142.6,82.33,0l82.334,142.6Z" transform="translate(366.638 -6765.923) rotate(30)" fill="#d6185e"/><path d="M0,142.6,82.33,0l82.334,142.6Z" transform="translate(366.638 -5778.24) rotate(30)" fill="#d6185e"/><path d="M0,142.6,82.33,0l82.334,142.6Z" transform="translate(366.638 -6271.82) rotate(30)" fill="#d6185e"/><path d="M0,142.6,82.33,0l82.334,142.6Z" transform="translate(1507.101 -4625.97) rotate(30)" fill="#d6185e"/><path d="M0,142.6,82.33,0l82.334,142.6Z" transform="translate(1507.101 -6107.582) rotate(30)" fill="#d6185e"/><path d="M0,142.6,82.33,0l82.334,142.6Z" transform="translate(1507.101 -5119.899) rotate(30)" fill="#d6185e"/><path d="M0,142.6,82.33,0l82.334,142.6Z" transform="translate(1507.101 -6601.511) rotate(30)" fill="#d6185e"/><path d="M0,142.6,82.33,0l82.334,142.6Z" transform="translate(1507.101 -5613.48) rotate(30)" fill="#d6185e"/><path d="M0,142.6,82.33,0l82.334,142.6Z" transform="translate(-631.291 -5860.532) rotate(30)" fill="#d6185e"/><path d="M0,142.6,82.33,0l82.334,142.6Z" transform="translate(-631.291 -6354.461) rotate(30)" fill="#d6185e"/><path d="M0,142.6,82.33,0l82.334,142.6Z" transform="translate(-631.291 -6848.042) rotate(30)" fill="#d6185e"/><path d="M0,142.6,82.33,0l82.334,142.6Z" transform="translate(509.173 -5202.02) rotate(30)" fill="#fbbb30"/><path d="M0,142.6,82.33,0l82.334,142.6Z" transform="translate(509.173 -6683.632) rotate(30)" fill="#d6185e"/><path d="M0,142.6,82.33,0l82.334,142.6Z" transform="translate(509.173 -5695.946) rotate(30)" fill="#d6185e"/><path d="M0,142.6,82.33,0l82.334,142.6Z" transform="translate(509.173 -6189.529) rotate(30)" fill="#fd7b3d"/><path d="M0,142.6,82.33,0l82.334,142.6Z" transform="translate(1649.636 -4543.68) rotate(30)" fill="#d6185e"/><path d="M0,142.6,82.33,0l82.334,142.6Z" transform="translate(1649.636 -6025.292) rotate(30)" fill="#d6185e"/><path d="M0,142.6,82.33,0l82.334,142.6Z" transform="translate(1649.636 -5037.608) rotate(30)" fill="#d6185e"/><path d="M0,142.6,82.33,0l82.334,142.6Z" transform="translate(1649.636 -6519.22) rotate(30)" fill="#d6185e"/><path d="M0,142.6,82.33,0l82.334,142.6Z" transform="translate(1649.636 -5531.19) rotate(30)" fill="#d6185e"/><path d="M0,142.6,82.33,0l82.334,142.6Z" transform="translate(1649.636 -7012.802) rotate(30)" fill="#d6185e"/><path d="M0,142.6,82.33,0l82.334,142.6Z" transform="translate(-488.756 -5778.24) rotate(30)" fill="#d6185e"/><path d="M0,142.6,82.33,0l82.334,142.6Z" transform="translate(-488.756 -6272.168) rotate(30)" fill="#d6185e"/><path d="M0,142.6,82.33,0l82.334,142.6Z" transform="translate(-488.756 -6765.75) rotate(30)" fill="#d6185e"/><path d="M0,142.6,82.33,0l82.334,142.6Z" transform="translate(651.707 -5119.727) rotate(30)" fill="#d6185e"/><path d="M0,142.6,82.33,0l82.334,142.6Z" transform="translate(651.707 -6601.338) rotate(30)" fill="#d6185e"/><path d="M0,142.6,82.33,0l82.334,142.6Z" transform="translate(651.707 -5613.655) rotate(30)" fill="#d6185e"/><path d="M0,142.6,82.33,0l82.334,142.6Z" transform="translate(651.707 -6107.237) rotate(30)" fill="#d6185e"/><path d="M0,142.6,82.33,0l82.334,142.6Z" transform="translate(1792.171 -4461.387) rotate(30)" fill="#d6185e"/><path d="M0,142.6,82.33,0l82.334,142.6Z" transform="translate(1792.171 -5942.999) rotate(30)" fill="#d6185e"/><path d="M0,142.6,82.33,0l82.334,142.6Z" transform="translate(1792.171 -4955.316) rotate(30)" fill="#d6185e"/><path d="M0,142.6,82.33,0l82.334,142.6Z" transform="translate(1792.171 -6436.928) rotate(30)" fill="#d6185e"/><path d="M0,142.6,82.33,0l82.334,142.6Z" transform="translate(1792.171 -5448.896) rotate(30)" fill="#d6185e"/><path d="M0,142.6,82.33,0l82.334,142.6Z" transform="translate(1792.171 -6930.508) rotate(30)" fill="#d6185e"/><path d="M0,142.6,82.33,0l82.334,142.6Z" transform="translate(-346.221 -5695.946) rotate(30)" fill="#ef514b"/><path d="M0,142.6,82.33,0l82.334,142.6Z" transform="translate(-346.221 -6189.876) rotate(30)" fill="#d6185e"/><path d="M0,142.6,82.33,0l82.334,142.6Z" transform="translate(-346.221 -6683.457) rotate(30)" fill="#d6185e"/><path d="M0,142.6,82.33,0l82.334,142.6Z" transform="translate(794.242 -5037.434) rotate(30)" fill="#ef514b"/><path d="M0,142.6,82.33,0l82.334,142.6Z" transform="translate(794.242 -6519.046) rotate(30)" fill="#d6185e"/><path d="M0,142.6,82.33,0l82.334,142.6Z" transform="translate(794.242 -5531.363) rotate(30)" fill="#d6185e"/><path d="M0,142.6,82.33,0l82.334,142.6Z" transform="translate(794.242 -7012.975) rotate(30)" fill="#d6185e"/><path d="M0,142.6,82.33,0l82.334,142.6Z" transform="translate(794.242 -6024.944) rotate(30)" fill="#d6185e"/><path d="M0,142.6,82.33,0l82.334,142.6Z" transform="translate(1934.705 -4379.093) rotate(30)" fill="#d6185e"/><path d="M0,142.6,82.33,0l82.334,142.6Z" transform="translate(1934.705 -5860.706) rotate(30)" fill="#d6185e"/><path d="M0,142.6,82.33,0l82.334,142.6Z" transform="translate(1934.705 -4873.021) rotate(30)" fill="#d6185e"/><path d="M0,142.6,82.33,0l82.334,142.6Z" transform="translate(1934.705 -6354.634) rotate(30)" fill="#d6185e"/><path d="M0,142.6,82.33,0l82.334,142.6Z" transform="translate(1934.705 -5366.604) rotate(30)" fill="#d6185e"/><path d="M0,142.6,82.33,0l82.334,142.6Z" transform="translate(1934.705 -6848.216) rotate(30)" fill="#d6185e"/><path d="M0,142.6,82.33,0l82.334,142.6Z" transform="translate(-346.186 -5531.266) rotate(-150)" fill="#af205e"/><path d="M0,142.6,82.33,0l82.334,142.6Z" transform="translate(-346.186 -6025.194) rotate(-150)" fill="#af205e"/><path d="M0,142.6,82.33,0l82.334,142.6Z" transform="translate(-346.186 -6518.775) rotate(-150)" fill="#af205e"/><path d="M0,142.6,82.33,0l82.334,142.6Z" transform="translate(794.277 -4872.752) rotate(-150)" fill="#af205e"/><path d="M0,142.6,82.33,0l82.334,142.6Z" transform="translate(794.277 -6354.364) rotate(-150)" fill="#af205e"/><path d="M0,142.6,82.33,0l82.334,142.6Z" transform="translate(794.277 -5366.68) rotate(-150)" fill="#ef514b"/><path d="M0,142.6,82.33,0l82.334,142.6Z" transform="translate(794.277 -5860.263) rotate(-150)" fill="#af205e"/><path d="M0,142.6,82.33,0l82.334,142.6Z" transform="translate(1934.74 -4214.413) rotate(-150)" fill="#af205e"/><path d="M0,142.6,82.33,0l82.334,142.6Z" transform="translate(1934.74 -5696.025) rotate(-150)" fill="#af205e"/><path d="M0,142.6,82.33,0l82.334,142.6Z" transform="translate(1934.74 -4708.339) rotate(-150)" fill="#af205e"/><path d="M0,142.6,82.33,0l82.334,142.6Z" transform="translate(1934.74 -6189.951) rotate(-150)" fill="#af205e"/><path d="M0,142.6,82.33,0l82.334,142.6Z" transform="translate(1934.74 -5201.922) rotate(-150)" fill="#af205e"/><path d="M0,142.6,82.33,0l82.334,142.6Z" transform="translate(1934.74 -6683.534) rotate(-150)" fill="#af205e"/><path d="M0,142.6,82.33,0l82.334,142.6Z" transform="translate(-488.721 -5613.558) rotate(-150)" fill="#af205e"/><path d="M0,142.6,82.33,0l82.334,142.6Z" transform="translate(-488.721 -6107.486) rotate(-150)" fill="#ef514b"/><path d="M0,142.6,82.33,0l82.334,142.6Z" transform="translate(-488.721 -6601.069) rotate(-150)" fill="#af205e"/><path d="M0,142.6,82.33,0l82.334,142.6Z" transform="translate(651.742 -6436.655) rotate(-150)" fill="#af205e"/><path d="M0,142.6,82.33,0l82.334,142.6Z" transform="translate(651.742 -5448.972) rotate(-150)" fill="#af205e"/><path d="M0,142.6,82.33,0l82.334,142.6Z" transform="translate(651.742 -5942.554) rotate(-150)" fill="#af205e"/><path d="M0,142.6,82.33,0l82.334,142.6Z" transform="translate(1792.205 -4296.704) rotate(-150)" fill="#af205e"/><path d="M0,142.6,82.33,0l82.334,142.6Z" transform="translate(1792.205 -5778.316) rotate(-150)" fill="#af205e"/><path d="M0,142.6,82.33,0l82.334,142.6Z" transform="translate(1792.205 -4790.633) rotate(-150)" fill="#ef514b"/><path d="M0,142.6,82.33,0l82.334,142.6Z" transform="translate(1792.205 -6272.245) rotate(-150)" fill="#af205e"/><path d="M0,142.6,82.33,0l82.334,142.6Z" transform="translate(1792.205 -5284.213) rotate(-150)" fill="#af205e"/><path d="M0,142.6,82.33,0l82.334,142.6Z" transform="translate(1792.205 -6765.825) rotate(-150)" fill="#af205e"/><path d="M0,142.6,82.33,0l82.334,142.6Z" transform="translate(-631.255 -5695.85) rotate(-150)" fill="#af205e"/><path d="M0,142.6,82.33,0l82.334,142.6Z" transform="translate(-631.255 -6189.778) rotate(-150)" fill="#af205e"/><path d="M0,142.6,82.33,0l82.334,142.6Z" transform="translate(-631.255 -6683.36) rotate(-150)" fill="#af205e"/><path d="M0,142.6,82.33,0l82.334,142.6Z" transform="translate(509.208 -5037.336) rotate(-150)" fill="#af205e"/><path d="M0,142.6,82.33,0l82.334,142.6Z" transform="translate(509.208 -6518.949) rotate(-150)" fill="#af205e"/><path d="M0,142.6,82.33,0l82.334,142.6Z" transform="translate(509.208 -5531.266) rotate(-150)" fill="#af205e"/><path d="M0,142.6,82.33,0l82.334,142.6Z" transform="translate(509.208 -6024.846) rotate(-150)" fill="#af205e"/><path d="M0,142.6,82.33,0l82.334,142.6Z" transform="translate(1649.671 -4378.997) rotate(-150)" fill="#af205e"/><path d="M0,142.6,82.33,0l82.334,142.6Z" transform="translate(1649.671 -5860.608) rotate(-150)" fill="#af205e"/><path d="M0,142.6,82.33,0l82.334,142.6Z" transform="translate(1649.671 -4872.925) rotate(-150)" fill="#af205e"/><path d="M0,142.6,82.33,0l82.334,142.6Z" transform="translate(1649.671 -6354.537) rotate(-150)" fill="#ef514b"/><path d="M0,142.6,82.33,0l82.334,142.6Z" transform="translate(1649.671 -5366.507) rotate(-150)" fill="#fd7b3d"/><path d="M0,142.6,82.33,0l82.334,142.6Z" transform="translate(-773.79 -5778.143) rotate(-150)" fill="#af205e"/><path d="M0,142.6,82.33,0l82.334,142.6Z" transform="translate(-773.79 -6272.072) rotate(-150)" fill="#af205e"/><path d="M0,142.6,82.33,0l82.334,142.6Z" transform="translate(-773.79 -6765.652) rotate(-150)" fill="#af205e"/><path d="M0,142.6,82.33,0l82.334,142.6Z" transform="translate(366.673 -5119.629) rotate(-150)" fill="#af205e"/><path d="M0,142.6,82.33,0l82.334,142.6Z" transform="translate(366.673 -6601.242) rotate(-150)" fill="#af205e"/><path d="M0,142.6,82.33,0l82.334,142.6Z" transform="translate(366.673 -5613.558) rotate(-150)" fill="#ef514b"/><path d="M0,142.6,82.33,0l82.334,142.6Z" transform="translate(366.673 -6107.14) rotate(-150)" fill="#af205e"/><path d="M0,142.6,82.33,0l82.334,142.6Z" transform="translate(1507.136 -4461.289) rotate(-150)" fill="#af205e"/><path d="M0,142.6,82.33,0l82.334,142.6Z" transform="translate(1507.136 -5942.901) rotate(-150)" fill="#af205e"/><path d="M0,142.6,82.33,0l82.334,142.6Z" transform="translate(1507.136 -4955.219) rotate(-150)" fill="#ef514b"/><path d="M0,142.6,82.33,0l82.334,142.6Z" transform="translate(1507.136 -6436.831) rotate(-150)" fill="#af205e"/><path d="M0,142.6,82.33,0l82.334,142.6Z" transform="translate(1507.136 -5448.799) rotate(-150)" fill="#af205e"/><path d="M0,142.6,82.33,0l82.334,142.6Z" transform="translate(-916.325 -5860.436) rotate(-150)" fill="#af205e"/><path d="M0,142.6,82.33,0l82.334,142.6Z" transform="translate(-916.325 -6354.364) rotate(-150)" fill="#ef514b"/><path d="M0,142.6,82.33,0l82.334,142.6Z" transform="translate(224.138 -5201.922) rotate(-150)" fill="#af205e"/><path d="M0,142.6,82.33,0l82.334,142.6Z" transform="translate(224.138 -6683.534) rotate(-150)" fill="#af205e"/><path d="M0,142.6,82.33,0l82.334,142.6Z" transform="translate(224.138 -5695.85) rotate(-150)" fill="#ef514b"/><path d="M0,142.6,82.33,0l82.334,142.6Z" transform="translate(224.138 -6189.433) rotate(-150)" fill="#af205e"/><path d="M0,142.6,82.33,0l82.334,142.6Z" transform="translate(1364.601 -4543.583) rotate(-150)" fill="#af205e"/><path d="M0,142.6,82.33,0l82.334,142.6Z" transform="translate(1364.601 -6025.194) rotate(-150)" fill="#fd7b3d"/><path d="M0,142.6,82.33,0l82.334,142.6Z" transform="translate(1364.601 -5037.51) rotate(-150)" fill="#af205e"/><path d="M0,142.6,82.33,0l82.334,142.6Z" transform="translate(1364.601 -6519.122) rotate(-150)" fill="#af205e"/><path d="M0,142.6,82.33,0l82.334,142.6Z" transform="translate(1364.601 -5531.093) rotate(-150)" fill="#af205e"/><path d="M0,142.6,82.33,0l82.334,142.6Z" transform="translate(-1058.86 -5942.728) rotate(-150)" fill="#af205e"/><path d="M0,142.6,82.33,0l82.334,142.6Z" transform="translate(-1058.86 -6436.655) rotate(-150)" fill="#af205e"/><path d="M0,142.6,82.33,0l82.334,142.6Z" transform="translate(81.603 -5284.213) rotate(-150)" fill="#af205e"/><path d="M0,142.6,82.33,0l82.334,142.6Z" transform="translate(81.603 -6765.825) rotate(-150)" fill="#af205e"/><path d="M0,142.6,82.33,0l82.334,142.6Z" transform="translate(81.603 -5778.143) rotate(-150)" fill="#af205e"/><path d="M0,142.6,82.33,0l82.334,142.6Z" transform="translate(81.603 -6271.724) rotate(-150)" fill="#af205e"/><path d="M0,142.6,82.33,0l82.334,142.6Z" transform="translate(1222.066 -4625.874) rotate(-150)" fill="#af205e"/><path d="M0,142.6,82.33,0l82.334,142.6Z" transform="translate(1222.066 -6107.486) rotate(-150)" fill="#af205e"/><path d="M0,142.6,82.33,0l82.334,142.6Z" transform="translate(1222.066 -5119.803) rotate(-150)" fill="#af205e"/><path d="M0,142.6,82.33,0l82.334,142.6Z" transform="translate(1222.066 -6601.415) rotate(-150)" fill="#af205e"/><path d="M0,142.6,82.33,0l82.334,142.6Z" transform="translate(1222.066 -5613.384) rotate(-150)" fill="#af205e"/><path d="M0,142.6,82.33,0l82.334,142.6Z" transform="translate(-1201.395 -6025.019) rotate(-150)" fill="#af205e"/><path d="M0,142.6,82.33,0l82.334,142.6Z" transform="translate(-1201.395 -6518.949) rotate(-150)" fill="#af205e"/><path d="M0,142.6,82.33,0l82.334,142.6Z" transform="translate(-60.932 -5366.507) rotate(-150)" fill="#af205e"/><path d="M0,142.6,82.33,0l82.334,142.6Z" transform="translate(-60.932 -5860.436) rotate(-150)" fill="#af205e"/><path d="M0,142.6,82.33,0l82.334,142.6Z" transform="translate(-60.932 -6354.017) rotate(-150)" fill="#af205e"/><path d="M0,142.6,82.33,0l82.334,142.6Z" transform="translate(1079.531 -4708.166) rotate(-150)" fill="#af205e"/><path d="M0,142.6,82.33,0l82.334,142.6Z" transform="translate(1079.531 -6189.778) rotate(-150)" fill="#af205e"/><path d="M0,142.6,82.33,0l82.334,142.6Z" transform="translate(1079.531 -5202.095) rotate(-150)" fill="#af205e"/><path d="M0,142.6,82.33,0l82.334,142.6Z" transform="translate(1079.531 -6683.708) rotate(-150)" fill="#af205e"/><path d="M0,142.6,82.33,0l82.334,142.6Z" transform="translate(1079.531 -5695.677) rotate(-150)" fill="#af205e"/><path d="M0,142.6,82.33,0l82.334,142.6Z" transform="translate(-1343.929 -6107.313) rotate(-150)" fill="#af205e"/><path d="M0,142.6,82.33,0l82.334,142.6Z" transform="translate(-1343.929 -6601.242) rotate(-150)" fill="#af205e"/><path d="M0,142.6,82.33,0l82.334,142.6Z" transform="translate(-203.466 -5448.799) rotate(-150)" fill="#af205e"/><path d="M0,142.6,82.33,0l82.334,142.6Z" transform="translate(-203.466 -5942.728) rotate(-150)" fill="#ef514b"/><path d="M0,142.6,82.33,0l82.334,142.6Z" transform="translate(-203.466 -6436.31) rotate(-150)" fill="#af205e"/><path d="M0,142.6,82.33,0l82.334,142.6Z" transform="translate(936.997 -4790.46) rotate(-150)" fill="#af205e"/><path d="M0,142.6,82.33,0l82.334,142.6Z" transform="translate(936.997 -6272.072) rotate(-150)" fill="#ef514b"/><path d="M0,142.6,82.33,0l82.334,142.6Z" transform="translate(936.997 -5284.389) rotate(-150)" fill="#af205e"/><path d="M0,142.6,82.33,0l82.334,142.6Z" transform="translate(936.997 -6766) rotate(-150)" fill="#af205e"/><path d="M0,142.6,82.33,0l82.334,142.6Z" transform="translate(936.997 -5777.969) rotate(-150)" fill="#af205e"/></g></svg>