<svg
   xmlns:dc="http://purl.org/dc/elements/1.1/"
   xmlns:cc="http://creativecommons.org/ns#"
   xmlns:rdf="http://www.w3.org/1999/02/22-rdf-syntax-ns#"
   xmlns:svg="http://www.w3.org/2000/svg"
   xmlns="http://www.w3.org/2000/svg"
   viewBox="0 0 477.33334 166.66667"
   height="166.66667"
   width="477.33334"
   xml:space="preserve"
   id="svg2"
   version="1.1">
   <defs
     id="defs6" /><g
     transform="matrix(1.3333333,0,0,-1.3333333,0,166.66667)"
     id="g10"><g
       transform="scale(0.1)"
       id="g12"><path
         id="path14"
         style="fill:#ed156b;fill-opacity:1;fill-rule:nonzero;stroke:none"
         d="m 758.223,997.711 c -67.016,0 -111.664,-17.852 -142.918,-50.566 -28.262,-29.747 -41.672,-72.911 -41.672,-129.454 0,-122.011 58.008,-181.582 184.59,-181.582 H 892.207 V 997.711 Z M 384.555,828.141 c 0,113.086 50.636,205.309 141.414,258.859 56.586,34.27 111.691,49.15 262.035,49.15 H 1061.91 V 106.461 H 892.207 v 392.855 h -174.18 c -186.093,0 -333.472,126.422 -333.472,328.825" /><path
         id="path16"
         style="fill:#f4683c;fill-opacity:1;fill-rule:nonzero;stroke:none"
         d="m 589.055,997.906 c -67.028,0 -111.629,-17.812 -142.907,-50.586 -28.304,-29.746 -41.675,-72.89 -41.675,-129.511 0,-122.071 58.05,-181.602 184.582,-181.602 H 723.008 V 997.906 Z M 215.359,828.219 c 0,113.144 50.633,205.431 141.422,259.031 56.614,34.23 111.699,49.15 262.028,49.15 H 892.734 V 106.25 H 723.008 V 499.277 H 548.883 c -186.11,0 -333.524,126.5 -333.524,328.942" /><path
         id="path18"
         style="fill:#fab228;fill-opacity:1;fill-rule:nonzero;stroke:none"
         d="m 425.406,997.906 c -66.945,0 -111.636,-17.812 -142.847,-50.586 -28.289,-29.746 -41.723,-72.89 -41.723,-129.511 0,-122.071 58.051,-181.602 184.57,-181.602 H 559.441 V 997.906 Z M 51.7969,828.219 c 0,113.144 50.5661,205.431 141.3871,259.031 56.582,34.23 111.636,49.15 262.027,49.15 H 729.137 V 106.25 H 559.441 V 499.277 H 385.238 c -186.078,0 -333.4411,126.5 -333.4411,328.942" /><path
         id="path20"
         style="fill:#ed156b;fill-opacity:1;fill-rule:nonzero;stroke:none"
         d="M 1320.97,936.09 V 830.406 h 47.04 c 25.77,0 39.95,5.157 49.61,16.114 7.74,9.023 10.96,21.914 10.96,37.382 0,16.114 -5.16,28.34 -14.18,37.364 -10.95,10.312 -27.06,14.824 -51.55,14.824 z M 1455,794.332 c -28.35,-16.113 -50.26,-19.98 -87.64,-19.98 h -46.39 v -125.02 h -71.53 v 341.523 h 98.59 c 65.08,0 83.77,-5.781 104.39,-16.093 34.15,-17.403 54.13,-50.274 54.13,-88.926 0,-43.184 -23.2,-76.035 -51.55,-91.504" /><path
         id="path22"
         style="fill:#ed156b;fill-opacity:1;fill-rule:nonzero;stroke:none"
         d="m 1666.43,925.777 c -3.86,-19.316 -36.09,-119.199 -41.88,-139.824 h 82.47 c -6.43,21.914 -37.37,120.508 -40.59,139.824 z m 86.34,-276.445 -29.64,81.836 H 1606.5 l -29,-81.836 h -74.1 l 126.94,342.813 h 77.33 l 121.78,-342.813 h -76.68" /><path
         id="path24"
         style="fill:#ed156b;fill-opacity:1;fill-rule:nonzero;stroke:none"
         d="m 1960.94,936.734 v -94.082 h 30.93 c 29.63,0 47.04,3.223 58.64,12.246 9.67,7.735 14.81,19.336 14.81,35.45 0,20.605 -9.66,35.429 -28.99,41.23 -10.96,3.223 -23.84,5.156 -41.24,5.156 z m 115.34,-287.402 -33.51,54.785 c -34.15,56.055 -45.75,68.946 -57.35,79.258 -5.8,5.156 -15.46,8.379 -24.48,8.379 V 649.332 h -70.24 v 341.523 h 115.34 c 45.11,0 76.68,-5.781 97.94,-23.828 23.21,-19.336 35.45,-45.761 35.45,-76.035 0,-52.851 -36.09,-90.859 -84.41,-95.371 4.51,-3.223 10.3,-9.023 15.46,-16.113 10.96,-14.18 29,-38.028 44.46,-61.211 l 47.04,-68.965 h -85.7" /><path
         id="path26"
         style="fill:#ed156b;fill-opacity:1;fill-rule:nonzero;stroke:none"
         d="m 2453.33,933.512 h -92.79 v -284.18 h -71.53 v 284.18 h -94.08 v 57.343 h 270.65 l -12.25,-57.343" /><path
         id="path28"
         style="fill:#ed156b;fill-opacity:1;fill-rule:nonzero;stroke:none"
         d="M 2675.02,789.176 V 649.332 h -74.1 v 139.844 l -119.21,201.679 h 85.7 l 52.84,-96.64 c 7.08,-13.535 15.46,-29.649 20.62,-41.25 4.51,11.601 10.31,26.426 19.34,42.539 l 53.47,95.351 h 83.77 L 2675.02,789.176" /><path
         id="path30"
         style="fill:#ed156b;fill-opacity:1;fill-rule:nonzero;stroke:none"
         d="M 1320.97,501.797 V 396.113 h 47.04 c 25.77,0 39.95,5.157 49.61,16.114 7.74,9.023 10.96,21.914 10.96,37.363 0,16.113 -5.16,28.359 -14.18,37.383 -10.95,10.312 -27.06,14.824 -51.55,14.824 z M 1455,360.02 c -28.35,-16.094 -50.26,-19.961 -87.64,-19.961 h -46.39 v -125.02 h -71.53 v 341.524 h 98.59 c 65.08,0 83.77,-5.801 104.39,-16.114 34.15,-17.383 54.13,-50.254 54.13,-88.926 0,-43.164 -23.2,-76.035 -51.55,-91.503" /><path
         id="path32"
         style="fill:#ed156b;fill-opacity:1;fill-rule:nonzero;stroke:none"
         d="m 1666.43,491.484 c -3.86,-19.336 -36.09,-119.218 -41.88,-139.824 h 82.47 c -6.43,21.895 -37.37,120.488 -40.59,139.824 z m 86.34,-276.445 -29.64,81.836 H 1606.5 l -29,-81.836 h -74.1 l 126.94,342.813 h 77.33 l 121.78,-342.813 h -76.68" /><path
         id="path34"
         style="fill:#ed156b;fill-opacity:1;fill-rule:nonzero;stroke:none"
         d="m 1960.94,502.441 v -94.082 h 30.93 c 29.63,0 47.04,3.223 58.64,12.246 9.67,7.735 14.81,19.336 14.81,35.43 0,20.625 -9.66,35.449 -28.99,41.25 -10.96,3.223 -23.84,5.156 -41.24,5.156 z m 115.34,-287.402 -33.51,54.785 c -34.15,56.055 -45.75,68.946 -57.35,79.258 -5.8,5.156 -15.46,8.379 -24.48,8.379 V 215.039 h -70.24 v 341.524 h 115.34 c 45.11,0 76.68,-5.801 97.94,-23.848 23.21,-19.317 35.45,-45.742 35.45,-76.035 0,-52.832 -36.09,-90.86 -84.41,-95.371 4.51,-3.204 10.3,-9.004 15.46,-16.094 10.96,-14.18 29,-38.027 44.46,-61.231 l 47.04,-68.945 h -85.7" /><path
         id="path36"
         style="fill:#ed156b;fill-opacity:1;fill-rule:nonzero;stroke:none"
         d="m 2453.33,499.219 h -92.79 v -284.18 h -71.53 v 284.18 h -94.08 v 57.344 h 270.65 l -12.25,-57.344" /><path
         id="path38"
         style="fill:#ed156b;fill-opacity:1;fill-rule:nonzero;stroke:none"
         d="m 2716.26,215.039 -83.13,157.871 c -18.03,33.516 -36.72,73.457 -41.88,87.637 1.29,-21.25 1.93,-61.211 2.58,-96.016 l 2.58,-149.492 h -68.95 v 341.524 h 79.26 l 85.7,-154.649 c 18.04,-32.226 30.29,-61.855 36.73,-79.258 -1.29,18.047 -5.16,55.41 -5.16,88.926 l -1.28,144.981 h 67.01 V 215.039 h -73.46" /><path
         id="path40"
         style="fill:#ed156b;fill-opacity:1;fill-rule:nonzero;stroke:none"
         d="m 2901.88,215.039 v 341.524 h 215.22 l -10.3,-56.055 h -134.04 v -78.613 h 112.12 v -56.719 h -111.47 v -90.84 h 148.2 v -59.297 h -219.73" /><path
         id="path42"
         style="fill:#ed156b;fill-opacity:1;fill-rule:nonzero;stroke:none"
         d="m 3287.26,502.441 v -94.082 h 30.92 c 29.64,0 47.04,3.223 58.65,12.246 9.66,7.735 14.81,19.336 14.81,35.43 0,20.625 -9.66,35.449 -28.99,41.25 -10.96,3.223 -23.84,5.156 -41.24,5.156 z m 115.34,-287.402 -33.51,54.785 c -34.15,56.055 -45.75,68.946 -57.35,79.258 -5.8,5.156 -15.46,8.379 -24.48,8.379 V 215.039 h -70.24 v 341.524 h 115.34 c 45.11,0 76.68,-5.801 97.94,-23.848 23.21,-19.317 35.45,-45.742 35.45,-76.035 0,-52.832 -36.09,-90.86 -84.41,-95.371 4.51,-3.204 10.3,-9.004 15.46,-16.094 10.95,-14.18 29,-38.027 44.46,-61.231 l 47.04,-68.945 h -85.7" /></g></g></svg>