<svg xmlns="http://www.w3.org/2000/svg" xmlns:xlink="http://www.w3.org/1999/xlink" width="782" height="388" viewBox="0 0 782 388">
  <defs>
    <clipPath id="clip-path">
      <rect width="782" height="388" fill="none"/>
    </clipPath>
  </defs>
  <g id="Musik" clip-path="url(#clip-path)">
    <g id="Small_Speaker" data-name="Small Speaker" transform="translate(-1.603)">
      <rect id="Rechteck_1" data-name="Rechteck 1" width="54" height="77" transform="translate(9.103 141.5)" fill="none" stroke="#000" stroke-miterlimit="10" stroke-width="15"/>
      <path id="Pfad_1" data-name="Pfad 1" d="M60.748,190.9a24.29,24.29,0,1,1-24.29-24.291A24.29,24.29,0,0,1,60.748,190.9Z" fill="none" stroke="#000" stroke-miterlimit="10" stroke-width="15"/>
      <line id="Linie_1" data-name="Linie 1" y2="157" transform="translate(36.103 223)" fill="none" stroke="#000" stroke-miterlimit="10" stroke-width="15"/>
      <line id="Linie_2" data-name="Linie 2" x2="63" transform="translate(4.603 379.5)" fill="none" stroke="#000" stroke-miterlimit="10" stroke-width="15"/>
    </g>
    <g id="Medium_Speaker" data-name="Medium Speaker" transform="translate(-1.603)">
      <rect id="Rechteck_2" data-name="Rechteck 2" width="16" height="13" transform="translate(153.603 118)"/>
      <rect id="Rechteck_3" data-name="Rechteck 3" width="16" height="13" transform="translate(222.603 118)"/>
      <path id="Pfad_2" data-name="Pfad 2" d="M231.956,94.9a38.748,38.748,0,1,1-38.748-38.75A38.749,38.749,0,0,1,231.956,94.9Z" fill="none" stroke="#000" stroke-miterlimit="10" stroke-width="15"/>
      <rect id="Rechteck_4" data-name="Rechteck 4" width="90" height="127" transform="translate(148.103 7.5)" fill="none" stroke="#000" stroke-miterlimit="10" stroke-width="15"/>
      <line id="Linie_3" data-name="Linie 3" y2="250" transform="translate(193.103 130)" fill="none" stroke="#000" stroke-miterlimit="10" stroke-width="15"/>
      <line id="Linie_4" data-name="Linie 4" x2="105" transform="translate(140.603 379.5)" fill="none" stroke="#000" stroke-miterlimit="10" stroke-width="15"/>
    </g>
    <g id="Large_Speaker" data-name="Large Speaker" transform="translate(-1.603)">
      <rect id="Rechteck_5" data-name="Rechteck 5" width="19" height="11" transform="translate(335.603 120)"/>
      <rect id="Rechteck_6" data-name="Rechteck 6" width="19" height="11" transform="translate(405.603 120)"/>
      <path id="Pfad_3" data-name="Pfad 3" d="M418.706,94.9a38.748,38.748,0,1,1-38.748-38.75A38.749,38.749,0,0,1,418.706,94.9Z" fill="none" stroke="#000" stroke-miterlimit="10" stroke-width="15"/>
      <path id="Pfad_4" data-name="Pfad 4" d="M438.585,315.9a58.628,58.628,0,1,1-58.627-58.628A58.631,58.631,0,0,1,438.585,315.9Z" fill="none" stroke="#000" stroke-miterlimit="10" stroke-width="15"/>
      <rect id="Rechteck_7" data-name="Rechteck 7" width="90" height="127" transform="translate(334.103 7.5)" fill="none" stroke="#000" stroke-miterlimit="10" stroke-width="15"/>
      <rect id="Rechteck_8" data-name="Rechteck 8" width="130" height="127" transform="translate(314.103 252.5)" fill="none" stroke="#000" stroke-miterlimit="10" stroke-width="15"/>
      <line id="Linie_5" data-name="Linie 5" y2="123" transform="translate(379.103 130)" fill="none" stroke="#000" stroke-miterlimit="10" stroke-width="15"/>
    </g>
    <g id="Column_Speaker" data-name="Column Speaker" transform="translate(-1.603)">
      <rect id="Rechteck_9" data-name="Rechteck 9" width="16" height="15" transform="translate(526.603 366)"/>
      <rect id="Rechteck_10" data-name="Rechteck 10" width="16" height="15" transform="translate(587.603 366)"/>
      <rect id="Rechteck_11" data-name="Rechteck 11" width="16" height="15" transform="translate(526.603 255)"/>
      <rect id="Rechteck_12" data-name="Rechteck 12" width="16" height="15" transform="translate(587.603 255)"/>
      <path id="Pfad_5" data-name="Pfad 5" d="M596.173,285.9a29.215,29.215,0,1,1-29.215-29.215A29.216,29.216,0,0,1,596.173,285.9Z" fill="none" stroke="#000" stroke-miterlimit="10" stroke-width="15"/>
      <path id="Pfad_6" data-name="Pfad 6" d="M596.173,348.9a29.215,29.215,0,1,1-29.215-29.215A29.216,29.216,0,0,1,596.173,348.9Z" fill="none" stroke="#000" stroke-miterlimit="10" stroke-width="15"/>
      <rect id="Rechteck_13" data-name="Rechteck 13" width="78" height="127" transform="translate(527.103 253.5)" fill="none" stroke="#000" stroke-miterlimit="10" stroke-width="15"/>
      <g id="Gruppe_1" data-name="Gruppe 1">
        <path id="Pfad_7" data-name="Pfad 7" d="M551.6,0V262h29V0ZM567.36,53.532a3.916,3.916,0,1,1,3.915-3.916A3.916,3.916,0,0,1,567.36,53.532Zm0-15a3.916,3.916,0,1,1,3.915-3.916A3.916,3.916,0,0,1,567.36,38.532Zm0-15a3.915,3.915,0,1,1,3.915-3.916A3.916,3.916,0,0,1,567.36,23.532Z"/>
      </g>
    </g>
    <g id="Person" transform="translate(-1.603)">
      <path id="Pfad_8" data-name="Pfad 8" d="M765.6,80.333a22,22,0,1,1-22-22A22,22,0,0,1,765.6,80.333Z" fill="none" stroke="#000" stroke-miterlimit="10" stroke-width="15"/>
      <line id="Linie_6" data-name="Linie 6" y2="130" transform="translate(743.603 119)" fill="none" stroke="#000" stroke-miterlimit="10" stroke-width="38"/>
      <line id="Linie_7" data-name="Linie 7" x2="58" transform="translate(712.603 126.5)" fill="none" stroke="#000" stroke-miterlimit="10" stroke-width="15"/>
      <line id="Linie_8" data-name="Linie 8" y2="142" transform="translate(732.103 245)" fill="none" stroke="#000" stroke-miterlimit="10" stroke-width="15"/>
      <line id="Linie_9" data-name="Linie 9" y2="142" transform="translate(755.103 245)" fill="none" stroke="#000" stroke-miterlimit="10" stroke-width="15"/>
      <line id="Linie_10" data-name="Linie 10" y2="129" transform="translate(710.103 119)" fill="none" stroke="#000" stroke-miterlimit="10" stroke-width="15"/>
      <line id="Linie_11" data-name="Linie 11" y2="129" transform="translate(776.103 119)" fill="none" stroke="#000" stroke-miterlimit="10" stroke-width="15"/>
    </g>
  </g>
</svg>
